<svg width="24" height="24" viewBox="0 0 24 24" fill="none" xmlns="http://www.w3.org/2000/svg">
<path fill-rule="evenodd" clip-rule="evenodd" d="M0 0H24V24H0V0Z" fill="#F3F3FD"/>
<path fill-rule="evenodd" clip-rule="evenodd" d="M22.2947 6.02568L22.2115 1.57094C21.909 1.61265 19.8448 1.48752 19.5575 1.59174C19.0964 1.74476 18.3175 2.22425 17.8414 2.35623C17.6597 2.44662 16.5333 2.99559 16.3291 3.0373C15.9964 3.0373 13.7659 3.86442 13.4634 3.90614L14.8396 4.3022L15.5124 5.69224C15.5124 5.90067 15.3386 7.10307 15.1873 7.26294C15.2705 7.41584 15.1572 7.49216 15.1496 7.62427L14.8546 7.78414C14.6355 8.02046 14.8926 7.93006 14.5599 7.98572L14.4163 8.16638L14.3785 8.52771C14.4388 8.90299 14.5675 9.28524 14.6507 9.66748C15.0666 10.4737 14.7263 10.8767 14.3256 11.5786C14.2424 12.0443 14.3029 12.2945 14.3633 12.7599L14.2575 13.3993L14.8472 14.8866L14.5371 14.9422L13.9929 15.1576L13.7735 15.1715L13.4334 15.2549L12.8966 15.5537L12.4202 15.929L12.2085 16.1235L11.891 16.0401L11.513 15.9012L11.3088 15.7274L9.69076 15.7831L8.53395 15.9706C8.14835 16.1097 7.70983 16.2903 7.38474 16.3877L6.71936 16.7074L6.12209 17.4302L5.83472 17.7915L5.35076 18.0904L4.88198 18.4724L4.48119 18.5558L4.12584 18.6672L3.66466 18.8966L3.43021 19.5569L2.73458 19.6819L2.32631 20.0016L2.37176 20.6895L2.06173 21.2664L1.78943 21.8155L1.94071 22.9412L22.2418 22.8648C22.234 15.8733 22.3248 13.594 22.2947 6.02568Z" fill="#F3F3FD"/>
<path fill-rule="evenodd" clip-rule="evenodd" d="M9.75854 5.845C12.9568 3.66084 15.8229 2.26235 18.5887 1.05896L22.3066 1.0739L22.1435 5.19207C22.5 5.42963 22.2904 7.06594 22.2469 6.85328C22.1652 6.52557 21.8196 5.76245 20.8206 5.14699C18.6185 5.52476 16.9774 5.90513 15.6787 6.45298C15.4993 6.53055 15.382 6.44302 15.393 6.36545C15.4422 5.85496 14.5301 4.2362 14.1979 4.22375C12.5757 4.17121 11.3917 5.33463 9.75854 5.845ZM22.099 4.87457C22.1464 4.86087 22.1012 4.99858 22.052 5.03967C21.8512 5.20788 22.2276 5.17003 22.0482 5.26951C21.9367 5.33127 21.776 5.18198 21.6452 5.17202C21.8267 4.98189 21.8359 4.95101 22.099 4.87457ZM13.6182 3.95344C15.0608 3.44059 17.1813 3.5707 18.7681 3.52812C19.9278 2.61758 20.796 2.34477 22.2903 1.95942V2.10459C20.8016 2.69004 19.993 3.14786 18.8497 4.01856C17.8209 3.82096 15.665 3.7358 13.6182 3.95344Z" fill="#010046"/>
<path fill-rule="evenodd" clip-rule="evenodd" d="M10.5281 5.82294L10.351 6.38834L10.1605 5.86552L10.5281 5.82294ZM10.3374 6.71368L10.4926 7.57429L10.2449 7.7694L10.3374 6.71368ZM10.4572 7.74948L10.2449 7.83452L10.2667 8.17219L10.4681 7.99962L10.4572 7.74948ZM10.4817 8.12973L10.2803 8.25984V8.48745H10.4817V8.12973ZM10.2803 8.56514L10.4681 8.6076L10.4817 8.82524L10.2803 9.01039V8.56514ZM10.4219 9.05546C10.5281 9.20562 10.6477 9.35814 10.7539 9.51079C10.8356 9.74101 10.9662 10.0888 11.0016 10.2088C11.0479 10.3165 11.203 11.5574 11.203 11.5574L10.9662 11.5673C10.9662 11.5673 11.0369 11.2421 11.0369 11.2321C11.0369 11.2421 10.7539 11.5574 10.7539 11.5574C10.7539 11.5574 10.5525 11.5998 10.5525 11.5899C10.5525 11.5999 10.7756 11.1871 10.7756 11.1871C10.7756 11.1871 10.3266 11.5673 10.3373 11.5673C10.3265 11.5673 10.7538 10.9918 10.5033 11.0795C10.2556 11.1645 10.3265 11.5673 10.1957 11.5673H10.0542C9.95893 11.5673 10.2203 10.9918 10.3509 10.7843C9.9481 10.6767 10.008 11.5673 9.81736 11.5673H9.48529L9.58054 10.6217C9.58054 10.6217 9.86355 9.82605 9.86355 9.81596C9.86355 9.82605 10.28 9.15295 10.28 9.15295C10.3266 9.12045 10.3729 9.08796 10.4219 9.05546ZM15.229 6.25835L15.2399 6.43092L15.3841 6.59353H15.4765L15.1935 7.62932L15.0383 7.66182C15.0383 7.66182 15.1091 7.41156 15.1228 7.41156C15.1092 7.41156 14.6492 7.69432 14.6492 7.69432C14.6492 7.69432 14.8018 7.13888 14.8018 7.1288C14.8018 7.13876 14.317 7.64925 14.328 7.64925C14.317 7.64925 14.2709 7.47655 14.2709 7.47655C14.2709 7.47655 13.8433 7.95442 13.8433 7.94446C13.8433 7.95442 14.3987 6.80109 14.3987 6.79112C14.3987 6.80109 13.5468 7.50917 13.5605 7.49921C13.547 7.50917 13.9851 6.73622 13.9851 6.73622C13.9851 6.73622 13.5113 6.94377 13.525 6.94377C13.5115 6.94377 13.9034 6.44337 13.9144 6.43079C13.9034 6.44337 14.4477 6.34326 14.4586 6.34326C14.4477 6.34326 14.7663 6.19323 14.7663 6.19323L15.229 6.25835ZM18.4137 8.12973L18.5333 7.53183H18.3537L18.332 7.05147L18.0952 7.16154L17.9889 6.81142C17.9889 6.81142 17.7738 7.11659 17.7875 7.11659C17.774 7.11659 17.4908 6.84641 17.5018 6.84641C17.4908 6.84641 17.4773 7.05147 17.4908 7.05147C17.4773 7.05147 17.1941 6.88886 17.1941 6.88886L17.2186 7.09642L16.8622 7.01885L16.8974 7.18146L16.4838 7.1715L16.519 7.35665C16.519 7.35665 16.2822 7.41168 16.1516 7.35665C16.0809 7.32415 15.7133 7.97708 15.8576 7.91196C16.0809 7.58425 16.424 7.54167 16.3314 7.63941C16.2224 7.7369 16.1164 7.88955 16.247 8.0422C16.1164 7.88955 16.7805 7.87959 16.7805 7.87959L16.6499 7.72694C16.6499 7.72694 17.0173 7.69444 16.9928 7.66195C16.7206 7.45426 17.3247 7.46422 17.5018 7.57429C17.6922 7.7044 17.8583 7.55176 18.0952 7.79206L18.4137 8.12973Z" fill="#010046"/>
<path fill-rule="evenodd" clip-rule="evenodd" d="M16.14 8.17311C16.4829 8.07562 16.9074 7.89034 17.158 7.88038C17.4165 7.913 17.7377 7.95546 17.9257 8.10811L18.2686 8.37831C18.3175 8.41093 18.2931 8.56346 18.2224 8.586C18.1517 8.60853 18.0563 8.57355 18.0563 8.57355L18.0318 8.41093C17.8195 8.99888 16.8614 8.71611 17.049 8.07574L16.9321 8.17323L16.7062 8.15319L16.6355 8.30335C16.6246 8.34594 16.483 8.21582 16.4939 8.24832C16.483 8.21582 16.151 8.46597 16.1401 8.42338C16.14 8.36822 16.5645 8.17311 16.14 8.17311ZM17.5473 8.10811C17.7025 8.14061 17.7948 8.19316 17.9038 8.27073L17.7377 8.42338C17.7377 8.42338 17.5227 8.3559 17.5473 8.36835V8.10811ZM19.4215 8.17311C19.2799 8.25828 19.1138 8.36822 18.9969 8.42326C18.877 8.48825 19.3643 8.42326 19.375 8.42326C19.3643 8.42326 18.9969 8.75857 18.9969 8.75857C18.9969 8.75857 19.3288 8.62846 19.3288 8.61849C19.3288 8.62858 19.4322 8.67353 19.4322 8.67353L19.2337 9.0213L19.5983 8.80352L19.895 8.92368C19.895 8.92368 20.0366 8.72607 20.0231 8.74861C20.0364 8.72607 20.2487 8.70603 20.2597 8.74861C20.2487 8.70603 20.2733 8.52088 20.2487 8.45576C20.238 8.42575 20.3467 8.36573 20.4746 8.3107C20.3904 8.92617 21.0653 9.12626 21.422 8.70603C21.4682 8.61837 21.433 8.52088 21.362 8.41081C21.3022 8.49834 21.2314 8.57342 21.1716 8.66095L21.0055 8.54092C21.0055 8.54092 20.9839 8.30323 21.0055 8.30323C20.9919 8.30323 20.8776 8.25828 20.7905 8.19316C20.8231 8.18569 20.845 8.18071 20.853 8.1832C21.3513 8.21569 21.7513 8.54105 21.7404 8.64103C21.7404 8.66095 21.8358 8.65099 21.9417 8.67353C21.9882 8.67353 21.9882 8.74861 22.0264 8.77102L22.2767 8.90363L22.2358 8.50332C22.1297 8.50332 21.5391 8.30323 21.5391 8.19303C21.5391 8.19303 22.0264 8.37818 22.0264 8.40072V8.16302L21.4437 7.95534C21.4437 7.95783 21.0898 7.99032 21.0898 7.97787C21.0898 7.99045 20.8286 8.0105 20.8286 8.00041C20.8286 8.0105 20.6406 8.06553 20.6515 8.02295C20.6625 7.97787 20.9237 7.87029 21.0545 7.8378C21.1714 7.8053 20.5316 7.87029 20.2132 8.0105C19.8946 8.16315 20.4501 7.66273 20.8774 7.66273C21.2067 7.66273 21.3512 7.67282 21.4926 7.75039C21.6095 7.79285 21.8708 7.88038 21.9661 8.00053C21.9771 8.02307 22.0615 7.8805 22.0615 7.87042C22.0615 7.8805 22.0479 7.62027 22.0479 7.62027C22.0263 7.56524 21.9882 7.5102 21.9663 7.44508C21.9417 7.5427 21.9173 7.63036 21.9065 7.71776C21.8111 7.5102 21.7159 7.305 21.6235 7.08735C21.6235 7.41258 21.3976 7.4777 21.373 7.1399C21.1961 7.18497 21.03 7.22743 20.853 7.27001C20.6978 7.32505 20.5317 7.38008 20.3795 7.43512C20.4037 7.35755 20.4257 7.27001 20.4502 7.19493C20.3904 7.20502 20.333 7.22743 20.2731 7.23739C20.2951 7.16231 20.3193 7.07478 20.3548 6.99969C20.1671 7.16231 19.9874 7.32492 19.8103 7.47758C19.7751 7.55515 19.7289 7.63023 19.6797 7.70531C19.658 7.71776 19.6199 7.72785 19.6199 7.72785C19.4105 7.78288 19.5495 7.9455 19.4215 8.17311Z" fill="#010046"/>
<path fill-rule="evenodd" clip-rule="evenodd" d="M22.1206 7.46423C22.2269 7.82457 22.178 7.79207 22.0145 8.05217C21.99 8.07471 22.1424 8.05217 22.1778 8.12974C22.2023 8.16224 22.488 7.83453 22.1206 7.46423ZM15.7694 8.59006C15.6906 8.575 15.6115 8.56503 15.5979 8.51249C15.5028 8.28476 15.3367 8.002 14.9693 7.71936L14.4603 7.95705C14.4603 7.95705 14.3052 8.18727 14.3187 8.18727C14.3052 8.18727 14.354 8.64011 14.354 8.64011C14.354 8.64011 14.4603 9.08798 14.4709 9.08798C14.4602 9.08798 14.4247 9.43574 14.4247 9.43574C14.4247 9.43574 14.6725 9.76096 14.6725 9.751C14.6725 9.76096 14.814 9.68601 14.814 9.68601C14.814 9.68601 14.7077 9.43574 14.7214 9.43574C14.7078 9.43574 14.7921 9.28309 14.7921 9.27313C14.7921 9.28309 14.637 9.0754 14.637 9.0754V8.95787C14.637 8.95787 14.4709 8.8153 14.4845 8.80522C14.4709 8.8153 14.4492 8.12227 14.4602 8.12227C14.4602 8.12227 14.6017 7.95717 14.6505 8.1097C14.6725 8.19723 14.8139 7.98954 14.8139 7.98954C14.8139 7.98954 14.9933 8.23981 15.0043 8.23981C14.9933 8.23981 15.064 8.14219 15.064 8.14219C15.064 8.14219 15.2301 8.55756 15.4072 8.82526C15.4208 8.85016 15.4561 8.87519 15.497 8.89524C15.3581 9.273 15.7475 9.74341 16.3627 9.94598C16.8933 10.1186 17.4241 10.0511 17.6774 9.79832C17.6475 10.0509 17.6909 10.6039 17.6909 10.5464C17.7262 10.2086 17.8434 9.59823 17.9277 9.32542C17.9494 9.25034 18.1507 8.92512 18.3523 8.87009C19.0517 8.82514 19.3102 9.59823 19.2287 9.70817C19.2178 9.71576 19.2287 9.70057 19.253 9.6682C19.2451 9.75565 19.2572 9.84376 19.2885 9.92581C19.4546 10.3812 20.1404 10.6989 20.8155 10.6213C21.349 10.5613 21.7164 10.286 21.7792 9.95333C21.82 9.96093 21.8961 9.94325 22.141 9.84824C22.3453 9.77067 21.9994 9.94088 22.2719 9.79333V9.42043C22.0513 9.54805 22.4134 9.38046 22.1303 9.52302C21.9695 9.52302 21.8226 9.51306 21.6728 9.50298C21.6131 9.41046 21.5313 9.3304 21.4333 9.25781C21.5668 9.20029 21.7599 8.99011 21.9043 8.925L21.7734 8.7274L21.5721 8.9677C21.5504 9.0002 21.3243 9.0327 21.3243 9.0327C21.3243 9.0327 21.2536 9.07765 21.1911 9.11774C20.9107 8.98775 20.5596 8.92761 20.2111 8.9677C19.9499 8.99771 19.7294 9.07765 19.5635 9.19282C19.1769 8.6624 18.4011 8.17444 17.7181 9.10267C17.5709 8.87245 17.2905 8.65979 16.9314 8.54474C16.4909 8.40242 16.0498 8.43243 15.7694 8.59006ZM21.8585 9.56585C22.0817 9.62089 22.0817 9.66335 22.0817 9.83853C22.117 9.76096 22.1524 9.65338 22.1309 9.58839C22.0953 9.5783 21.9756 9.57831 21.8585 9.56585ZM20.2716 9.22806C19.7271 9.27313 19.3842 9.58839 19.5258 9.91361C19.6564 10.2514 20.2116 10.4816 20.7561 10.4265C21.3006 10.3716 21.6325 10.0663 21.5019 9.74104C21.3714 9.40324 20.816 9.17551 20.2716 9.22806ZM16.8856 8.75018C17.381 8.90283 17.6776 9.26055 17.5604 9.53323C17.4408 9.816 16.9428 9.91349 16.4475 9.76096C15.9492 9.59835 15.6445 9.25059 15.7724 8.96795C15.8893 8.69515 16.3873 8.59006 16.8856 8.75018ZM15.5029 8.50253C15.4784 8.56752 15.4674 8.68519 15.4538 8.75031C15.5029 8.63015 15.5844 8.62019 15.6444 8.60762C15.6089 8.57761 15.5382 8.63003 15.5029 8.50253Z" fill="#010046"/>
<path fill-rule="evenodd" clip-rule="evenodd" d="M14.8613 8.48743L14.992 8.62003L14.9567 9.17298C14.9567 9.17298 14.7661 8.91275 14.7661 8.90279C14.7661 8.91275 14.6735 8.69523 14.6735 8.69523L14.8613 8.48743ZM17.4418 10.0012C15.7624 10.3815 15.7841 11.6674 15.8438 11.8526C15.893 11.9827 15.9502 10.8393 17.2538 10.5341C17.2783 10.524 16.8756 10.3814 17.4418 10.0012ZM19.7994 10.543C20.0798 11.0308 19.3259 10.9158 19.2034 10.8932C19.1598 10.8332 19.1626 10.653 19.2333 10.608C19.2333 10.5955 19.5055 10.3252 19.5163 10.3252L19.2688 10.3802L19.3395 10.1076L19.2196 10.2077C19.2086 10.0876 19.2196 9.85742 19.2086 9.7273C19.078 10.1526 18.9119 10.4454 18.4738 10.8457C18.8631 10.8382 18.8033 11.0784 18.7652 11.1759C18.3515 11.456 17.7283 11.6062 17.6219 11.216L17.4913 10.6504C17.4913 10.6504 17.3033 10.5629 17.3033 10.5753C17.1972 10.7705 17.5156 11.5961 17.8723 11.7287C18.1663 11.8462 18.8304 11.6511 19.1026 11.456C19.1026 11.456 20.058 11.1082 20.1532 10.9657C20.3302 10.7256 19.9873 10.6181 19.7994 10.543ZM20.0112 11.1871C20.9229 11.0995 21.4564 11.4824 21.3966 11.5574C21.5627 11.7649 21.4321 11.9926 21.3966 12.0904C21.2305 12.5706 21.1843 12.4606 20.9475 13.1461C20.806 13.5714 21.1953 11.8526 21.0182 11.5575C20.8657 11.2971 20.4983 11.6224 20.0112 11.1871Z" fill="#010046"/>
<path fill-rule="evenodd" clip-rule="evenodd" d="M16.6391 12.3359C16.8025 12.3359 16.9684 12.3459 17.1236 12.3558C17.3116 12.466 17.5265 12.5635 17.7033 12.6837C17.8776 12.7888 18.1524 12.7386 18.2531 12.8587C18.3322 12.7687 19.4073 12.3785 19.4073 12.3785C19.5272 12.2285 20.0471 12.0856 20.273 11.9232C20.9342 11.8031 20.6404 12.2608 20.6268 12.2935C20.3192 12.3161 20.0607 12.5412 19.9518 12.5963C19.8454 12.6512 19.4917 12.6715 19.478 12.6388C19.4673 12.6062 19.0996 12.8139 19.2058 12.8366C19.3012 12.8689 18.4846 12.8891 18.2723 12.8792H18.2641C18.2886 12.9891 16.9412 12.8092 16.8026 12.6289C16.756 12.5313 16.6962 12.4334 16.6391 12.3359ZM18.7346 13.2111C19.4451 13.0258 20.2016 12.8733 20.7814 12.5579C20.9013 13.5063 19.456 14.7673 19.279 14.8548C19.0069 15.0073 21.8132 12.7433 18.7346 13.2111ZM18.781 13.5064C18.4136 13.5164 18.0462 13.4087 17.6785 13.5264C17.5509 13.9617 17.5971 14.3119 17.7629 14.6922C17.7873 14.0392 17.9043 13.6688 18.781 13.5064Z" fill="#010046"/>
<path fill-rule="evenodd" clip-rule="evenodd" d="M16.968 12.0701C16.7557 12.0152 16.6142 11.9701 16.2929 12.1127C16.2115 12.4605 16.3421 12.6557 16.3774 12.9284C16.4238 12.5155 16.6498 12.2528 16.968 12.0701ZM16.3312 11.7974C16.2358 11.7649 15.6561 12.1127 15.5119 12.8734C15.8574 13.3087 16.0209 13.136 15.9283 13.0708C15.8684 12.6881 15.7269 12.4704 16.3312 11.7974Z" fill="#010046"/>
<path fill-rule="evenodd" clip-rule="evenodd" d="M14.7552 9.91357C15.1934 11.0344 14.1265 11.6124 14.4475 12.8083C14.4475 12.821 14.3278 13.604 14.7797 14.2119C15.0737 14.6273 15.109 14.8222 15.3349 14.8549C15.7133 14.9098 15.5607 14.8648 16.0697 15.2675C16.1514 15.3351 16.3774 15.3553 16.0564 15.4002C14.6246 15.5852 14.2817 13.9842 14.2107 13.8115C14.1402 13.6364 14.1754 12.8307 14.3061 12.8957C14.4232 12.9608 14.0802 12.0803 14.0802 12.0803C14.1645 11.1995 14.8016 10.9593 14.7552 9.91357ZM16.4728 14.3444C16.5082 15.0175 16.6388 15.6053 17.0771 15.8781C17.1695 15.9005 17.2784 15.9105 17.3601 15.8781C17.5017 15.8229 17.4907 15.6505 17.6921 15.8455C17.9043 16.0731 18.1169 16.0531 18.1169 16.0531C18.1169 16.1057 18.4843 16.0082 18.6611 15.8228C18.8979 15.5402 19.3362 15.3551 19.2083 15.4001C18.4844 15.6377 17.703 15.6277 17.4907 15.0071C17.4418 14.8646 17.4907 15.42 17.5153 15.42C17.0987 15.7254 16.7803 15.0498 16.4728 14.3444Z" fill="#010046"/>
<path fill-rule="evenodd" clip-rule="evenodd" d="M16.2358 15.4652C16.862 15.9757 16.8265 16.3134 18.2255 16.4236C19.9893 16.0732 20.5447 15.6378 21.5979 15.1274C21.1843 15.7906 20.569 16.1833 19.7989 16.4335C19.0284 16.6937 18.4842 16.4984 18.3073 16.5636C17.205 16.9989 16.1761 16.4236 16.2358 15.4652ZM19.6684 16.8912C20.5339 16.7813 20.9013 16.0082 22.3222 15.17C20.7707 16.6736 21.4919 16.7062 20.8658 16.8912C19.3498 17.1514 19.7282 17.0539 19.6684 16.8912ZM22.2514 17.4517L21.9655 17.6193C21.9655 17.6193 21.4212 18.3275 21.4322 18.3275C21.4212 18.3275 20.9475 18.5452 20.9475 18.5452C20.9475 18.5452 20.2372 18.6001 20.2372 18.5877C20.2372 18.6002 19.2436 19.806 19.2544 19.806C19.2434 19.806 18.65 20.3515 18.65 20.3515L19.739 17.4993L20.0002 18.295C20.0002 18.295 20.1063 17.2944 20.1201 17.2944C20.1063 17.2944 20.4138 17.9349 20.4278 17.9349C20.414 17.9349 21.4321 17.6421 21.4458 17.6421C21.4322 17.6421 22.2541 17.0318 22.2541 17.0216L22.2514 17.4517Z" fill="#010046"/>
<path fill-rule="evenodd" clip-rule="evenodd" d="M18.1892 19.5913C17.9523 18.8858 17.7044 18.1779 17.4679 17.4698C17.2663 17.1973 16.9479 16.797 16.8417 16.6641C16.7328 16.534 15.0399 17.9827 14.969 17.9276C14.9118 17.8628 13.3958 19.1034 13.0745 19.2112C12.7562 19.3087 13.7034 19.2336 13.6789 19.136C13.6434 19.0385 13.7279 19.4511 13.7279 19.4511L15.2414 18.688C15.1245 18.688 15.2903 19.2235 15.2903 19.2235C15.2059 19.4013 14.9392 20.1091 14.4412 20.7147C13.6655 21.6605 12.4378 22.7013 12.25 22.8863L16.0607 22.9138C16.1204 22.3109 16.3683 19.2286 16.439 19.3087C16.5697 19.4614 17.3019 18.9609 17.1956 18.906C17.5276 19.136 17.8596 19.3637 18.1892 19.5913ZM15.2194 18.3729C15.4074 18.1226 15.6685 18.0251 15.9761 18.0577C15.4917 18.2205 15.3256 18.4055 15.2303 18.7206C15.2194 18.6132 15.2194 18.493 15.2194 18.3729ZM15.2413 18.0152C15.4316 17.7649 15.6931 17.6674 16.0115 17.7C15.527 17.8628 15.3473 18.0478 15.255 18.3629C15.255 18.2529 15.2413 18.1353 15.2413 18.0152ZM15.7992 18.9283C16.047 18.9383 16.2839 19.0258 16.3437 19.2111C16.4852 19.1685 16.556 19.1459 16.5695 19.0583C16.319 18.8634 16.047 18.8734 15.7992 18.9283ZM13.3807 17.3467C13.4297 17.9347 13.2636 18.0772 13.0023 18.8702C13.0269 18.3274 13.1083 17.8044 13.3807 17.3467ZM13.702 17.847C13.8433 17.6745 14.0556 17.587 14.1645 17.642C14.2708 17.6946 14.2352 17.8796 14.091 18.0546C13.9385 18.2299 13.7262 18.3149 13.6173 18.2623C13.5113 18.2073 13.5468 18.0223 13.702 17.847ZM18.898 18.7627C18.8408 18.555 18.6502 18.415 18.4844 18.4476C18.3183 18.48 18.2256 18.6752 18.2828 18.8703C18.3535 19.078 18.5443 19.2307 18.7104 19.1981C18.8762 19.1655 18.9579 18.968 18.898 18.7627ZM14.5429 14.8649C14.2352 15.5954 13.9142 16.3235 13.5957 17.054C13.9034 16.9438 14.3768 16.0732 14.9812 15.8683C15.5828 15.6606 14.2107 15.9658 14.3525 15.9106C14.4941 15.8557 14.8615 15.3554 14.8615 15.3554L14.4476 15.4327C14.483 15.2476 14.5077 15.0499 14.5429 14.8649ZM14.2352 15.03C13.465 15.3127 13.0621 15.4652 12.376 15.9757C12.4687 15.7807 12.4115 15.5529 12.6593 15.3777C13.0621 15.0951 13.8189 15.2576 14.2352 15.03ZM7.96118 16.1559C8.81582 15.743 9.29493 15.5954 9.97264 15.4979C10.5878 15.5078 11.0479 15.5954 11.3798 15.7581C10.6831 15.803 10.1496 15.9757 9.79297 16.2709C9.70855 16.0032 9.25123 15.9781 8.02916 16.2284L7.96118 16.1559ZM12.0142 16.0557C11.9897 16.0481 11.4889 16.6011 11.2629 16.989C11.0371 17.3766 10.6805 18.1273 10.4871 18.59C10.2939 19.0528 10.253 19.2556 10.0816 19.6583C9.91013 20.0637 9.77404 20.4489 9.50722 20.9792C9.24052 21.5071 8.77236 22.3802 8.52185 22.9032L9.00358 22.8857C9.07978 22.6379 9.30302 21.9524 9.50162 21.4896C9.69772 21.0268 9.88 20.4162 10.0705 19.9909C10.2637 19.5655 10.3454 19.2102 10.6013 18.6675C10.8572 18.1245 11.1158 17.354 11.4858 16.9387L12.2235 16.1131L12.0142 16.0557Z" fill="#010046"/>
<path fill-rule="evenodd" clip-rule="evenodd" d="M11.8129 15.9832C11.5162 16.2483 11.6387 16.2033 11.4399 16.3835C11.2411 16.5662 10.9418 17.0663 10.6805 17.5067C10.4219 17.9471 9.79035 19.4757 9.03906 21.0819C8.28776 22.6857 8.0375 22.7956 7.98022 22.8832L8.45934 22.8807C8.59269 22.5929 9.13157 21.6647 9.34946 21.0417C9.56722 20.4189 9.53448 20.4388 9.77678 19.7833C10.0217 19.1279 10.1715 18.8252 10.4191 18.405C10.6642 17.9845 10.7649 17.6368 11.0506 17.184C11.3391 16.7311 11.6386 16.4459 11.9571 16.0356L11.8129 15.9832Z" fill="#010046"/>
<path fill-rule="evenodd" clip-rule="evenodd" d="M11.5133 15.8856C11.301 16.0282 10.9635 16.6361 10.5497 17.2165C10.1332 17.7995 10.0679 18.3799 9.73033 18.9426C9.39291 19.5057 9.35468 19.8784 8.90557 20.6365C8.45646 21.3945 7.99366 22.4028 7.49835 22.9057L7.90388 22.8858C8.08891 22.5628 8.6959 21.2771 9.15049 20.4063C9.60507 19.5333 9.70568 19.0929 10.008 18.5876C10.3073 18.0796 10.1958 17.7469 10.6612 17.2214C11.1295 16.6961 11.5077 16.1506 11.7337 15.9556L11.5133 15.8856ZM15.3349 15.4325C16.0808 15.6504 15.9284 16.1832 16.2821 16.2158C16.0698 16.1607 15.893 16.1281 15.6671 16.0306C15.4548 15.8356 15.6671 15.703 15.3349 15.4325ZM21.9766 12.0152L22.0501 12.3529L22.072 12.6132L22.061 12.9056L22.0501 13.1786L22.0011 13.4937L21.8595 13.8966L21.6337 14.2795L21.3397 14.6046L21.0185 14.8648L20.7353 15.0498L20.4386 15.1825L19.976 15.3552L20.4848 15.0824L20.9124 14.7998L21.1954 14.4971L21.4566 14.1466L21.7291 13.6588L21.8705 13.2235L21.9549 12.7656L21.9766 12.3955V12.0152ZM15.3349 11.9925L15.218 12.1453L15.1691 12.2328L15.0874 12.3955L15.0382 12.5706L15.0166 12.7433L15.0273 12.9407L15.0519 13.2008L15.1336 13.4511L15.2533 13.724L15.3349 13.9739L15.4413 14.1693L15.5964 14.377L15.7379 14.517L15.9284 14.6272L15.7977 14.5819L15.6426 14.4971L15.512 14.377L15.3704 14.2119L15.2752 14.0491L15.1934 13.8864L15.0874 13.679L14.9811 13.4085L14.9213 13.2008L14.8968 12.9609V12.7656L14.9323 12.6032L14.992 12.4055L15.0737 12.2754L15.1691 12.1353L15.3349 11.9925ZM18.4137 5.98556L18.8164 6.10571L19.007 6.12575L19.1948 6.14816L19.3609 6.10571L19.7745 5.98556L19.2792 6.07321H19.0886L18.8981 6.06063L18.7347 6.04071L18.4137 5.98556ZM17.537 6.21328L17.9754 6.20332L18.1768 6.22573L18.449 6.25835L18.6995 6.34339L18.9118 6.4435L19.0994 6.57349L19.3144 6.45346L19.5512 6.3109L19.7882 6.23582L20.025 6.21328H20.2263L20.6756 6.23582H20.2128L20.0467 6.25835L19.9051 6.26832L19.7173 6.3109L19.5024 6.41088L19.3499 6.50849L19.2083 6.61607L19.124 6.75876L18.947 6.59353L18.7919 6.48596L18.5905 6.37589L18.4244 6.32335L18.2719 6.26832L18.0463 6.24578L17.8692 6.22573L17.537 6.21328ZM13.612 3.93402L13.6173 3.94909L13.6257 3.96403L13.612 3.93402Z" fill="#010046"/>
<path fill-rule="evenodd" clip-rule="evenodd" d="M13.6119 3.93402L13.6172 3.94909L13.6255 3.96403L13.6119 3.93402Z" fill="#010046"/>
<path fill-rule="evenodd" clip-rule="evenodd" d="M13.6119 3.93402L13.6173 3.94909L13.6256 3.96403L13.6119 3.93402ZM12.2236 16.0887L11.8227 16.6865C11.6412 16.9992 11.4447 17.2842 11.2858 17.6108C11.1271 17.9445 10.991 18.2711 10.8549 18.6324C10.7112 19.0006 10.6659 19.3552 10.4919 19.7999C10.3104 20.2447 10.0685 20.8493 9.84923 21.3566L9.13081 22.8578C9.28209 22.8509 9.41817 22.8787 9.56933 22.8716C9.69795 22.5103 9.90202 22.0587 10.0305 21.6487C10.159 21.2384 10.28 20.7034 10.4237 20.2657C10.5598 19.821 10.6807 19.4595 10.8621 18.9939C11.0436 18.5352 11.3006 18 11.5275 17.4998L12.2236 16.0887ZM3.63422 18.9312C3.73258 18.7506 3.94424 18.5351 4.11059 18.4237C4.27693 18.3126 4.36011 18.3683 4.60962 18.2572C4.85154 18.1457 5.29754 17.9374 5.57731 17.7357C5.85708 17.5412 6.07634 17.2632 6.26535 17.0825C6.46195 16.9019 6.56019 16.7766 6.76438 16.6725C6.52993 16.992 6.3032 17.3257 6.02343 17.6385C5.75112 17.9512 5.30513 18.271 5.09347 18.5281C4.88927 18.7851 4.83635 19.0077 4.79103 19.1606C4.73812 19.3065 4.8818 19.2856 4.79863 19.3967C4.71546 19.5081 4.49619 19.6539 4.33732 19.786C4.43556 19.6401 4.57924 19.501 4.63975 19.348C4.69267 19.2021 4.72293 19.0423 4.66241 18.9311C4.6095 18.8197 4.54139 18.792 4.35998 18.7849C4.17857 18.7782 3.87614 18.8965 3.63422 18.9312ZM5.67555 18.4723C5.67555 18.4169 5.55465 18.4585 5.66795 18.2986C5.78138 18.1389 6.13685 17.7565 6.35599 17.5482C6.56766 17.3466 6.75666 17.2354 6.95326 17.0754C7.01377 17.152 7.1348 17.1379 7.1272 17.3048C7.1272 17.4648 7.04403 17.7775 6.93807 17.986C6.83224 18.1876 6.59032 18.3891 6.49955 18.5072C6.40119 18.6253 6.39372 18.6044 6.37106 18.6878C6.3484 18.7783 6.43157 18.8965 6.37865 19.0006C6.32574 19.1049 6.18205 19.112 6.08381 19.2647C5.98545 19.4177 5.90228 19.6818 5.81923 19.8972C6.02343 19.3274 6.38625 18.5419 6.44676 18.2015C6.51486 17.854 6.24256 18.2153 6.11419 18.264C5.9857 18.3126 5.81936 18.4031 5.67555 18.4723Z" fill="#010046"/>
<path fill-rule="evenodd" clip-rule="evenodd" d="M4.11813 19.1813C4.01217 19.2995 3.86861 19.3967 3.79304 19.536C3.71746 19.6819 3.66454 19.8697 3.67961 20.0085C3.6948 20.1476 3.77038 20.2378 3.89127 20.3144C4.0123 20.3976 4.21637 20.3838 4.37524 20.4533C4.52639 20.5298 4.67008 20.641 4.81376 20.7383C4.67767 20.5785 4.51892 20.4117 4.40549 20.2586C4.2846 20.1127 4.14851 20.0155 4.11825 19.8415C4.088 19.6608 4.23168 19.4037 4.23168 19.2856C4.23143 19.1745 4.15585 19.2161 4.11813 19.1813ZM2.99145 19.9389C2.90068 20.0361 2.74953 20.1196 2.70408 20.2377C2.66636 20.3489 2.69649 20.4531 2.75712 20.5646C2.81751 20.6687 2.93094 20.773 3.05196 20.8422C3.18805 20.9118 3.38465 20.905 3.51314 20.9745C3.64163 21.0438 3.67948 21.162 3.81557 21.2383C3.94407 21.322 4.14066 21.3774 4.30701 21.4537V21.301C4.20118 21.2523 4.09534 21.2591 3.98192 21.1479C3.87608 21.0436 3.80798 20.842 3.67948 20.6683C3.55099 20.4876 3.33173 20.2096 3.21818 20.0844C3.10488 19.9598 3.06702 19.9874 2.99145 19.9389Z" fill="#010046"/>
<path fill-rule="evenodd" clip-rule="evenodd" d="M3.52076 19.2786C3.46785 19.362 3.47544 19.4733 3.36202 19.5288C3.24859 19.5913 3.05958 19.5497 2.90071 19.5913C2.74196 19.6332 2.5151 19.6957 2.40168 19.7651C2.28825 19.8415 2.28825 19.8624 2.26559 19.9874C2.2504 20.1127 2.30344 20.3349 2.28065 20.5088C2.2504 20.6825 2.17482 20.8841 2.10684 21.0023C2.03886 21.1204 1.92531 21.0857 1.86492 21.2039C1.80441 21.322 1.80441 21.5373 1.77415 21.6835C1.7363 21.8223 1.66819 21.9195 1.65313 22.0655C1.64553 22.2114 1.69098 22.4268 1.71352 22.5451C1.7363 22.6632 1.78162 22.8092 1.81188 22.8857C1.87986 22.8996 1.97822 22.8786 2.04633 22.8857C2.04633 22.4061 1.9405 21.9473 2.01607 21.6973C2.09924 21.4539 1.99341 21.3845 2.09924 21.3011C2.19761 21.2177 2.37142 21.3774 2.49232 21.322C2.60575 21.2593 2.69651 21.169 2.68892 21.0092C2.68132 20.8493 2.49991 20.6337 2.45459 20.4531C2.40927 20.2724 2.37142 20.0708 2.42434 19.9387C2.46978 19.7999 2.59068 19.7581 2.7193 19.7233C2.84779 19.6888 3.02173 19.7581 3.15023 19.7442C3.27884 19.7233 3.37708 19.6888 3.46025 19.6261C3.52824 19.5707 3.58128 19.4733 3.59634 19.4108C3.60394 19.3413 3.54343 19.3204 3.52076 19.2786ZM22.2568 19.7095L20.4195 22.8648L21.0469 22.8925L21.8032 20.9607L22.2568 20.2377V19.7095ZM22.2947 20.7311L21.8182 21.4679L21.0698 22.8925L22.2718 22.9064L22.2794 22.2809V21.5024L21.72 22.4061L22.2794 21.2593L22.2947 20.7311Z" fill="#010046"/>
</svg>
