<svg width="24" height="24" viewBox="0 0 24 24" fill="none" xmlns="http://www.w3.org/2000/svg">
<path d="M20.6577 15.31L20.6578 15.31C21.1982 15.8507 21.5019 16.5838 21.5022 17.3482C21.5026 18.1127 21.1994 18.846 20.6594 19.3871L20.6592 19.3873L20.1838 19.8628L20.1793 19.8672L20.1793 19.8672C19.6143 20.4044 18.9481 20.8238 18.2195 21.101C17.4921 21.3777 16.7171 21.5071 15.9393 21.4818C13.3211 21.4803 10.1376 20.1384 7.00225 17.0023C1.8153 11.8184 1.51898 6.4474 4.14231 3.82387L20.6577 15.31ZM20.6577 15.31L19.0078 13.66L19.007 13.6593C18.4686 13.1252 17.7419 12.8241 16.9835 12.8208C16.2251 12.8176 15.4959 13.1125 14.9529 13.642L14.9529 13.642L14.9502 13.6447C14.7265 13.8697 14.4315 14.0096 14.1158 14.0405C13.8001 14.0714 13.4835 13.9913 13.2205 13.814L13.2195 13.8133C12.0188 13.012 10.9872 11.9825 10.1834 10.7834C10.0093 10.5171 9.93213 10.1989 9.96495 9.8823C9.99782 9.56531 10.1389 9.26933 10.3645 9.04423L10.3646 9.04427L10.3678 9.0409C10.8925 8.49746 11.1836 7.77021 11.1789 7.01482C11.1741 6.25943 10.8739 5.5359 10.3424 4.99911L10.3415 4.99823L8.6915 3.34823L8.6912 3.34793C8.15035 2.80893 7.41791 2.50629 6.65435 2.50629C5.89078 2.50629 5.15835 2.80893 4.6175 3.34793L4.61706 3.34837L4.14245 3.82373L20.6577 15.31ZM5.555 5.23178L5.55556 5.23122L6.02643 4.75735C6.02657 4.75722 6.02671 4.75708 6.02684 4.75694C6.19235 4.59225 6.41634 4.49979 6.64985 4.49979C6.88346 4.49979 7.10755 4.59234 7.27308 4.75717C7.27314 4.75723 7.27321 4.75729 7.27327 4.75735L8.9225 6.40659C8.92258 6.40667 8.92265 6.40674 8.92273 6.40682C9.08513 6.57015 9.17731 6.79046 9.1796 7.02079C9.18189 7.25049 9.0946 7.47201 8.9363 7.63839C8.39017 8.18884 8.04952 8.9101 7.97132 9.6816C7.89304 10.454 8.08256 11.2298 8.50814 11.8791L8.50813 11.8791L8.50936 11.8809C9.46183 13.3062 10.6866 14.5292 12.1134 15.4796L12.1146 15.4804C12.762 15.906 13.5358 16.0967 14.3068 16.0205C15.0774 15.9443 15.7986 15.6062 16.35 15.0625C16.5162 14.9018 16.7387 14.8126 16.9699 14.814C17.2014 14.8154 17.423 14.9076 17.5873 15.0706C17.5873 15.0707 17.5874 15.0708 17.5875 15.0709L19.2369 16.7203L19.2382 16.7216C19.3211 16.8032 19.387 16.9005 19.4321 17.0077C19.4773 17.115 19.5008 17.2301 19.5013 17.3464C19.5018 17.4628 19.4792 17.578 19.435 17.6857C19.3908 17.7933 19.3257 17.8911 19.2435 17.9734L18.7682 18.4487C17.8688 19.3481 16.4001 19.7419 14.5824 19.3525C12.765 18.9631 10.6168 17.7914 8.41476 15.589C6.21273 13.3866 5.04098 11.2375 4.65152 9.41921C4.26197 7.60053 4.65566 6.13112 5.555 5.23178Z" fill="#010046" stroke="#010046" stroke-width="0.5"/>
</svg>
