<svg width="24" height="24" viewBox="0 0 24 24" fill="none" xmlns="http://www.w3.org/2000/svg">
<path d="M21.75 8.25H2.25C1.42275 8.25 0.75 7.57725 0.75 6.75V2.25C0.75 1.42275 1.42275 0.75 2.25 0.75H21.75C22.5772 0.75 23.25 1.42275 23.25 2.25V6.75C23.25 7.57725 22.5772 8.25 21.75 8.25ZM2.25 2.25V6.75H21.7507L21.75 2.25H2.25Z" fill="#010046"/>
<path d="M9.75 5.24999H4.5C4.08525 5.24999 3.75 4.91399 3.75 4.49999C3.75 4.08599 4.08525 3.74999 4.5 3.74999H9.75C10.1648 3.74999 10.5 4.08599 10.5 4.49999C10.5 4.91399 10.1648 5.24999 9.75 5.24999ZM19.5 5.24999C19.4475 5.24999 19.4025 5.24249 19.35 5.23499C19.305 5.22749 19.26 5.21249 19.215 5.18999C19.17 5.17499 19.125 5.15249 19.0793 5.12249C19.0417 5.09249 19.0043 5.06249 18.9675 5.03249C18.8318 4.88999 18.75 4.69499 18.75 4.49999C18.75 4.40249 18.7725 4.30499 18.81 4.21499C18.8475 4.12499 18.9 4.04249 18.9675 3.96749C19.245 3.68999 19.755 3.68999 20.0325 3.96749C20.1 4.04249 20.1525 4.11749 20.19 4.21499C20.2275 4.30499 20.25 4.40249 20.25 4.49999C20.25 4.70249 20.1675 4.88999 20.0325 5.03249C19.89 5.16749 19.695 5.24999 19.5 5.24999ZM16.5 5.24999C16.305 5.24999 16.1093 5.16749 15.9675 5.03249C15.8318 4.88999 15.75 4.69499 15.75 4.49999C15.75 4.40249 15.765 4.30499 15.81 4.21499C15.8475 4.11749 15.9 4.04249 15.9675 3.96749C16.1393 3.79499 16.4025 3.71249 16.6417 3.76499C16.6942 3.77249 16.7393 3.78749 16.7843 3.80999C16.8293 3.82499 16.8743 3.84749 16.9193 3.87749C16.9568 3.89999 16.995 3.93749 17.0317 3.96749C17.0992 4.03499 17.1518 4.11749 17.1893 4.21499C17.2275 4.30499 17.25 4.40249 17.25 4.49999C17.25 4.70249 17.1675 4.88999 17.0325 5.03249C16.995 5.06249 16.9567 5.09249 16.92 5.12249C16.875 5.15249 16.83 5.17499 16.785 5.18999C16.7392 5.21249 16.695 5.22749 16.6425 5.23499C16.5975 5.24249 16.545 5.24999 16.5 5.24999ZM21.75 14.25H2.25C1.42275 14.25 0.75 13.5772 0.75 12.75V6.74999H23.25V12.75C23.25 13.5772 22.5772 14.25 21.75 14.25ZM2.25 8.24999V12.75H21.7507L21.75 8.24999H2.25Z" fill="#010046"/>
<path d="M9.75 11.25H4.5C4.08525 11.25 3.75 10.914 3.75 10.5C3.75 10.086 4.08525 9.74999 4.5 9.74999H9.75C10.1648 9.74999 10.5 10.086 10.5 10.5C10.5 10.914 10.1648 11.25 9.75 11.25ZM19.5 11.25C19.4475 11.25 19.4025 11.2425 19.35 11.235C19.305 11.2275 19.26 11.2125 19.215 11.19C19.1693 11.175 19.125 11.1525 19.0792 11.1225C19.0417 11.1 19.0043 11.0625 18.9675 11.0325C18.9 10.9575 18.8475 10.875 18.81 10.785C18.7725 10.695 18.75 10.5975 18.75 10.5C18.75 10.4025 18.7725 10.305 18.81 10.215C18.8475 10.125 18.9 10.0425 18.9675 9.96749C19.005 9.93749 19.0425 9.89999 19.0792 9.87749C19.125 9.84749 19.1693 9.82499 19.215 9.80999C19.26 9.78749 19.305 9.77249 19.35 9.76499C19.5975 9.71249 19.86 9.79499 20.0325 9.96749C20.1 10.0425 20.1525 10.1175 20.19 10.215C20.2275 10.305 20.25 10.4025 20.25 10.5C20.25 10.5975 20.2275 10.695 20.19 10.785C20.1525 10.8825 20.1 10.9575 20.0325 11.0325C19.89 11.1675 19.695 11.25 19.5 11.25ZM16.5 11.25C16.305 11.25 16.1093 11.1675 15.9675 11.0325C15.9 10.9575 15.8475 10.875 15.81 10.785C15.765 10.695 15.75 10.5975 15.75 10.5C15.75 10.305 15.8318 10.11 15.9675 9.96749C16.1393 9.79499 16.4025 9.71249 16.6417 9.76499C16.6942 9.77249 16.7393 9.78749 16.7843 9.80999C16.8292 9.82499 16.8743 9.84749 16.9193 9.87749C16.9567 9.90749 16.995 9.93749 17.0317 9.96749C17.1675 10.11 17.25 10.2975 17.25 10.5C17.25 10.5975 17.2275 10.695 17.19 10.785C17.1525 10.8825 17.1 10.9575 17.0325 11.0325C16.995 11.0625 16.9567 11.1 16.92 11.1225C16.875 11.1525 16.83 11.175 16.785 11.19C16.7392 11.2125 16.695 11.2275 16.6425 11.235C16.5975 11.2425 16.545 11.25 16.5 11.25ZM8.25 23.25C7.83525 23.25 7.5 22.914 7.5 22.5V16.5C7.5 16.086 7.83525 15.75 8.25 15.75C8.66475 15.75 9 16.086 9 16.5V22.5C9 22.914 8.66475 23.25 8.25 23.25Z" fill="#010046"/>
<path d="M6 19.5C5.808 19.5 5.616 19.4265 5.46975 19.2803C5.1765 18.987 5.1765 18.513 5.46975 18.2198L7.71975 15.9698C8.013 15.6765 8.487 15.6765 8.78025 15.9698C9.0735 16.263 9.0735 16.737 8.78025 17.0303L6.53025 19.2803C6.384 19.4265 6.192 19.5 6 19.5Z" fill="#010046"/>
<path d="M10.5 19.5C10.308 19.5 10.116 19.4265 9.96975 19.2803L7.71975 17.0303C7.4265 16.737 7.4265 16.263 7.71975 15.9698C8.013 15.6765 8.487 15.6765 8.78025 15.9698L11.0303 18.2198C11.3235 18.513 11.3235 18.987 11.0303 19.2803C10.884 19.4265 10.692 19.5 10.5 19.5ZM15.75 23.25C15.3353 23.25 15 22.914 15 22.5V16.5C15 16.086 15.3353 15.75 15.75 15.75C16.1648 15.75 16.5 16.086 16.5 16.5V22.5C16.5 22.914 16.1648 23.25 15.75 23.25Z" fill="#010046"/>
<path d="M15.75 23.25C15.558 23.25 15.366 23.1765 15.2198 23.0303C14.9265 22.737 14.9265 22.263 15.2198 21.9698L17.4698 19.7198C17.763 19.4265 18.237 19.4265 18.5303 19.7198C18.8235 20.013 18.8235 20.487 18.5303 20.7803L16.2803 23.0303C16.134 23.1765 15.942 23.25 15.75 23.25Z" fill="#010046"/>
<path d="M15.75 23.25C15.558 23.25 15.366 23.1765 15.2198 23.0303L12.9698 20.7803C12.6765 20.487 12.6765 20.013 12.9698 19.7198C13.263 19.4265 13.737 19.4265 14.0303 19.7198L16.2803 21.9698C16.5735 22.263 16.5735 22.737 16.2803 23.0303C16.134 23.1765 15.942 23.25 15.75 23.25Z" fill="#010046"/>
</svg>
