<svg width="24" height="24" viewBox="0 0 24 24" fill="none" xmlns="http://www.w3.org/2000/svg">
<path d="M22.7849 4.56H18.3195L18 4.61496V5.04408C18 5.09448 18.1524 5.13672 18.1947 5.16816C18.235 5.20224 18.3442 5.22072 18.3891 5.22072L18.7937 5.24088C19.2526 5.26248 19.3923 5.36208 19.5711 5.53008C19.7465 5.70408 19.7753 5.99928 19.6385 6.41424L15.6919 16.7172L15.5412 16.6723L13.0339 11.0328C13.0704 10.9481 13.0923 10.9006 13.0923 10.9006L15.1447 6.68184C15.3835 6.23688 15.6147 5.8392 15.732 5.65392C15.9463 5.316 16.0507 5.25216 16.6351 5.22264C16.7544 5.22264 16.8003 5.16408 16.8003 5.04552V4.6188L16.7703 4.57296C16.7703 4.57296 14.3165 4.56456 13.1993 4.57296L13.2 4.61688V5.04384C13.2 5.09592 13.1712 5.13744 13.2108 5.16888C13.2531 5.20296 13.2708 5.22048 13.3162 5.22048L13.4835 5.24184C13.9402 5.26344 14.1444 5.39448 14.2066 5.4768C14.3158 5.6244 14.3667 5.78184 14.1024 6.41544L12.522 9.87624L11.0938 6.666C10.6255 5.64024 10.5096 5.32272 11.2157 5.26344L11.4053 5.21952C11.5411 5.21952 11.52 5.16576 11.52 5.06376V4.61496L11.5059 4.57824C11.5059 4.57824 8.88985 4.57824 7.69633 4.57896L7.68001 4.62288V5.07288C7.68001 5.17392 7.77961 5.19984 7.96441 5.22768C8.62561 5.32272 8.61409 5.3988 9.26737 6.82272C9.36505 7.03608 9.65353 7.67952 9.65353 7.67952L11.1425 10.8934C11.1425 10.8934 11.3115 11.3062 11.5757 11.947L9.41185 16.6901L9.28825 16.6553C9.28825 16.6553 5.93041 8.87472 4.95937 6.27144C4.85713 6.00336 4.81273 5.80272 4.81273 5.67912C4.81273 5.41464 5.02969 5.27136 5.46361 5.25216L6.12385 5.2284C6.25897 5.2284 6.48001 5.17176 6.48001 5.05392V4.62696L6.28105 4.5828C6.28105 4.5828 2.16745 4.57776 1.33657 4.5828L1.20001 4.62696V5.07624C1.20001 5.15688 1.30753 5.20704 1.49449 5.2284C2.00545 5.25936 2.34865 5.34816 2.50945 5.49792C2.66977 5.64864 2.84377 6.02952 3.06937 6.62304C4.29025 9.8448 6.88585 15.5942 8.14921 18.8693C8.51233 19.7628 8.97097 19.902 9.52513 18.8412C10.0961 17.6777 11.2479 15.095 12.0881 13.1887C12.8741 15.0905 13.9443 17.6633 14.4605 18.829C14.8714 19.7618 15.3401 19.854 15.8155 18.8568C17.0595 15.8198 20.6923 6.68016 20.6923 6.68016C20.8493 6.2316 21.0687 5.886 21.3514 5.63496C21.6319 5.38704 22.0495 5.24688 22.6351 5.21952C22.7537 5.21952 22.8003 5.15976 22.8003 5.04408V4.61496L22.7849 4.56Z" fill="#010046"/>
</svg>
