<svg width="24" height="24" viewBox="0 0 24 24" fill="none" xmlns="http://www.w3.org/2000/svg">
<path d="M6.75 12H5.25V5.25H6.75V12ZM12.75 5.25H11.25V12H12.75V5.25ZM17.25 12H18.75V5.25H17.25V12ZM22.5 21V22.5H1.5V21H2.25V3.75C2.25 3.15326 2.48705 2.58097 2.90901 2.15901C3.33097 1.73705 3.90326 1.5 4.5 1.5H7.5C8.05504 1.50331 8.58927 1.71166 9 2.085C9.41073 1.71166 9.94496 1.50331 10.5 1.5H13.5C14.055 1.50331 14.5893 1.71166 15 2.085C15.4107 1.71166 15.945 1.50331 16.5 1.5H19.5C20.0967 1.5 20.669 1.73705 21.091 2.15901C21.5129 2.58097 21.75 3.15326 21.75 3.75V21H22.5ZM3.75 21H5.25V15H6.75V21H8.25V3.75C8.25 3.55109 8.17098 3.36032 8.03033 3.21967C7.88968 3.07902 7.69891 3 7.5 3H4.5C4.30109 3 4.11032 3.07902 3.96967 3.21967C3.82902 3.36032 3.75 3.55109 3.75 3.75V21ZM9.75 21H11.25V15H12.75V21H14.25V3.75C14.25 3.55109 14.171 3.36032 14.0303 3.21967C13.8897 3.07902 13.6989 3 13.5 3H10.5C10.3011 3 10.1103 3.07902 9.96967 3.21967C9.82902 3.36032 9.75 3.55109 9.75 3.75V21ZM20.25 21V3.75C20.25 3.55109 20.171 3.36032 20.0303 3.21967C19.8897 3.07902 19.6989 3 19.5 3H16.5C16.3011 3 16.1103 3.07902 15.9697 3.21967C15.829 3.36032 15.75 3.55109 15.75 3.75V21H17.25V15H18.75V21H20.25Z" fill="#010046"/>
</svg>
