<svg width="24" height="24" viewBox="0 0 24 24" fill="none" xmlns="http://www.w3.org/2000/svg">
<path d="M7.50001 16.5C7.3011 16.5 7.11033 16.421 6.96968 16.2803C6.82903 16.1396 6.75001 15.9489 6.75001 15.75V12.1575C6.75001 11.9586 6.82903 11.7678 6.96968 11.6271C7.11033 11.4865 7.3011 11.4075 7.50001 11.4075C7.69892 11.4075 7.88969 11.4865 8.03034 11.6271C8.17099 11.7678 8.25001 11.9586 8.25001 12.1575V15.75C8.25001 15.9489 8.17099 16.1396 8.03034 16.2803C7.88969 16.421 7.69892 16.5 7.50001 16.5ZM16.5 22.5C16.3779 22.4984 16.2576 22.4703 16.1475 22.4175L12 20.25L7.87501 22.41C7.761 22.4758 7.63166 22.5105 7.50001 22.5105C7.36836 22.5105 7.23903 22.4758 7.12501 22.41C7.00944 22.3433 6.91377 22.2469 6.84785 22.1309C6.78193 22.0149 6.74815 21.8834 6.75001 21.75V20.25C6.75001 20.0511 6.82903 19.8603 6.96968 19.7196C7.11033 19.579 7.3011 19.5 7.50001 19.5C7.69892 19.5 7.88969 19.579 8.03034 19.7196C8.17099 19.8603 8.25001 20.0511 8.25001 20.25V20.5125L11.655 18.75C11.7616 18.6947 11.8799 18.6659 12 18.6659C12.1201 18.6659 12.2384 18.6947 12.345 18.75L15.75 20.5125V12.1575C15.75 11.9586 15.829 11.7678 15.9697 11.6271C16.1103 11.4865 16.3011 11.4075 16.5 11.4075C16.6989 11.4075 16.8897 11.4865 17.0303 11.6271C17.171 11.7678 17.25 11.9586 17.25 12.1575V21.75C17.2508 21.8794 17.218 22.0068 17.1549 22.1199C17.0918 22.2329 17.0006 22.3277 16.89 22.395C16.7711 22.4626 16.6368 22.4988 16.5 22.5Z" fill="#010046"/>
<path d="M12 14.9325C10.6621 14.9324 9.3544 14.5348 8.24295 13.7901C7.1315 13.0453 6.26643 11.9871 5.75759 10.7498C5.24874 9.51244 5.11907 8.15179 5.38503 6.84061C5.651 5.52943 6.30061 4.32686 7.25138 3.3856C8.20215 2.44434 9.41119 1.80685 10.725 1.55407C12.0388 1.3013 13.398 1.44464 14.6302 1.96589C15.8624 2.48715 16.9118 3.36281 17.6454 4.48169C18.3789 5.60056 18.7634 6.91218 18.75 8.25C18.7322 10.0285 18.0132 11.7281 16.7492 12.9794C15.4853 14.2307 13.7785 14.9326 12 14.9325ZM12 3C10.9616 3 9.94659 3.30791 9.08323 3.88478C8.21987 4.46166 7.54696 5.2816 7.1496 6.24091C6.75224 7.20022 6.64828 8.25582 6.85085 9.27422C7.05342 10.2926 7.55344 11.2281 8.28766 11.9623C9.02189 12.6965 9.95735 13.1965 10.9757 13.3991C11.9941 13.6017 13.0497 13.4977 14.0091 13.1004C14.9684 12.703 15.7883 12.0301 16.3652 11.1667C16.9421 10.3034 17.25 9.28835 17.25 8.25C17.25 6.85761 16.6968 5.52225 15.7123 4.53769C14.7277 3.55312 13.3924 3 12 3Z" fill="#010046"/>
<path d="M13.8675 11.5725C13.7476 11.573 13.6293 11.5447 13.5225 11.49L12.0225 10.6875L10.5225 11.49C10.3983 11.5553 10.2583 11.5844 10.1183 11.5741C9.97836 11.5638 9.84411 11.5144 9.73083 11.4316C9.61754 11.3488 9.52976 11.2359 9.47746 11.1056C9.42517 10.9754 9.41046 10.8331 9.435 10.695L9.6825 8.99997L8.4525 7.79997C8.35359 7.70233 8.28375 7.57913 8.25078 7.44411C8.21781 7.3091 8.223 7.16757 8.26579 7.03533C8.30857 6.9031 8.38726 6.78535 8.49306 6.69523C8.59887 6.60511 8.72764 6.54616 8.865 6.52497L10.5675 6.27747L11.3175 4.73247C11.3789 4.60567 11.4748 4.49873 11.5942 4.4239C11.7136 4.34907 11.8516 4.30939 11.9925 4.30939C12.1334 4.30939 12.2714 4.34907 12.3908 4.4239C12.5102 4.49873 12.6061 4.60567 12.6675 4.73247L13.4175 6.27747L15.12 6.52497C15.2574 6.54616 15.3861 6.60511 15.4919 6.69523C15.5978 6.78535 15.6764 6.9031 15.7192 7.03533C15.762 7.16757 15.7672 7.3091 15.7342 7.44411C15.7013 7.57913 15.6314 7.70233 15.5325 7.79997L14.3175 8.99997L14.61 10.695C14.6368 10.8356 14.6228 10.9809 14.5696 11.1138C14.5164 11.2467 14.4264 11.3616 14.31 11.445C14.1795 11.5328 14.0247 11.5774 13.8675 11.5725ZM12 9.08997C12.1209 9.08957 12.2397 9.12059 12.345 9.17997L12.8775 9.44997L12.75 8.86497C12.7303 8.74557 12.7398 8.62319 12.7777 8.50826C12.8156 8.39333 12.8807 8.28927 12.9675 8.20497L13.395 7.79247L12.8025 7.70247C12.6831 7.68519 12.5696 7.63936 12.4717 7.56885C12.3737 7.49834 12.2943 7.40525 12.24 7.29747L12 6.74997L11.7375 7.28247C11.6832 7.39025 11.6038 7.48334 11.5058 7.55385C11.4079 7.62435 11.2944 7.67019 11.175 7.68747L10.5825 7.77747L11.01 8.18997C11.0968 8.27427 11.1619 8.37833 11.1998 8.49326C11.2377 8.60819 11.2472 8.73057 11.2275 8.84997L11.1225 9.43497L11.655 9.16497C11.7617 9.1108 11.8805 9.08497 12 9.08997Z" fill="#010046"/>
<path d="M7.5 18.75C7.91421 18.75 8.25 18.4142 8.25 18C8.25 17.5858 7.91421 17.25 7.5 17.25C7.08579 17.25 6.75 17.5858 6.75 18C6.75 18.4142 7.08579 18.75 7.5 18.75Z" fill="#010046"/>
</svg>
