<svg width="24" height="24" viewBox="0 0 24 24" fill="none" xmlns="http://www.w3.org/2000/svg">
<path d="M20.25 3.75H17.25V2.25C17.25 2.05109 17.171 1.86032 17.0303 1.71967C16.8897 1.57902 16.6989 1.5 16.5 1.5C16.3011 1.5 16.1103 1.57902 15.9697 1.71967C15.829 1.86032 15.75 2.05109 15.75 2.25V3.75H8.25V2.25C8.25 2.05109 8.17098 1.86032 8.03033 1.71967C7.88968 1.57902 7.69891 1.5 7.5 1.5C7.30109 1.5 7.11032 1.57902 6.96967 1.71967C6.82902 1.86032 6.75 2.05109 6.75 2.25V3.75H3.75C3.15326 3.75 2.58097 3.98705 2.15901 4.40901C1.73705 4.83097 1.5 5.40326 1.5 6V20.25C1.5 20.8467 1.73705 21.419 2.15901 21.841C2.58097 22.2629 3.15326 22.5 3.75 22.5H20.25C20.8467 22.5 21.419 22.2629 21.841 21.841C22.2629 21.419 22.5 20.8467 22.5 20.25V6C22.5 5.40326 22.2629 4.83097 21.841 4.40901C21.419 3.98705 20.8467 3.75 20.25 3.75ZM3 6C3 5.80109 3.07902 5.61032 3.21967 5.46967C3.36032 5.32902 3.55109 5.25 3.75 5.25H20.25C20.4489 5.25 20.6397 5.32902 20.7803 5.46967C20.921 5.61032 21 5.80109 21 6V6.75H3V6ZM20.25 21H3.75C3.55109 21 3.36032 20.921 3.21967 20.7803C3.07902 20.6397 3 20.4489 3 20.25V8.25H21V20.25C21 20.4489 20.921 20.6397 20.7803 20.7803C20.6397 20.921 20.4489 21 20.25 21Z" fill="#010046"/>
<path d="M9.75 9H6C5.60218 9 5.22064 9.15804 4.93934 9.43934C4.65804 9.72064 4.5 10.1022 4.5 10.5V12.75C4.5 13.1478 4.65804 13.5294 4.93934 13.8107C5.22064 14.092 5.60218 14.25 6 14.25H9.75C10.1478 14.25 10.5294 14.092 10.8107 13.8107C11.092 13.5294 11.25 13.1478 11.25 12.75V10.5C11.25 10.1022 11.092 9.72064 10.8107 9.43934C10.5294 9.15804 10.1478 9 9.75 9ZM6 12.75V10.5H9.75V12.75H6ZM9.75 15H6C5.60218 15 5.22064 15.158 4.93934 15.4393C4.65804 15.7206 4.5 16.1022 4.5 16.5V18.75C4.5 19.1478 4.65804 19.5294 4.93934 19.8107C5.22064 20.092 5.60218 20.25 6 20.25H9.75C10.1478 20.25 10.5294 20.092 10.8107 19.8107C11.092 19.5294 11.25 19.1478 11.25 18.75V16.5C11.25 16.1022 11.092 15.7206 10.8107 15.4393C10.5294 15.158 10.1478 15 9.75 15ZM6 18.75V16.5H9.75V18.75H6ZM18 9H14.25C13.8522 9 13.4706 9.15804 13.1893 9.43934C12.908 9.72064 12.75 10.1022 12.75 10.5V12.75C12.75 13.1478 12.908 13.5294 13.1893 13.8107C13.4706 14.092 13.8522 14.25 14.25 14.25H18C18.3978 14.25 18.7794 14.092 19.0607 13.8107C19.342 13.5294 19.5 13.1478 19.5 12.75V10.5C19.5 10.1022 19.342 9.72064 19.0607 9.43934C18.7794 9.15804 18.3978 9 18 9ZM14.25 12.75V10.5H18V12.75H14.25ZM18 15H14.25C13.8522 15 13.4706 15.158 13.1893 15.4393C12.908 15.7206 12.75 16.1022 12.75 16.5V18.75C12.75 19.1478 12.908 19.5294 13.1893 19.8107C13.4706 20.092 13.8522 20.25 14.25 20.25H18C18.3978 20.25 18.7794 20.092 19.0607 19.8107C19.342 19.5294 19.5 19.1478 19.5 18.75V16.5C19.5 16.1022 19.342 15.7206 19.0607 15.4393C18.7794 15.158 18.3978 15 18 15ZM14.25 18.75V16.5H18V18.75H14.25Z" fill="#010046"/>
</svg>
