<svg width="24" height="24" viewBox="0 0 24 24" fill="none" xmlns="http://www.w3.org/2000/svg">
<path d="M19.4362 21H4.56372C3.56916 21 2.61533 20.6049 1.91207 19.9016C1.20881 19.1984 0.813721 18.2446 0.813721 17.25V6.75C0.813257 5.79563 1.17669 4.87699 1.82997 4.18125C1.96623 4.03604 2.15458 3.95091 2.35361 3.94458C2.55263 3.93825 2.74602 4.01125 2.89122 4.1475C3.03643 4.28376 3.12156 4.47211 3.12789 4.67114C3.13422 4.87016 3.06123 5.06354 2.92497 5.20875C2.53246 5.62596 2.31385 6.17717 2.31372 6.75V17.25C2.31372 17.8467 2.55077 18.419 2.97273 18.841C3.39469 19.2629 3.96698 19.5 4.56372 19.5H19.4362C20.033 19.5 20.6053 19.2629 21.0272 18.841C21.4492 18.419 21.6862 17.8467 21.6862 17.25V6.75C21.6862 6.15326 21.4492 5.58097 21.0272 5.15901C20.6053 4.73705 20.033 4.5 19.4362 4.5H5.53497C5.33606 4.5 5.14529 4.42098 5.00464 4.28033C4.86399 4.13968 4.78497 3.94891 4.78497 3.75C4.78497 3.55109 4.86399 3.36032 5.00464 3.21967C5.14529 3.07902 5.33606 3 5.53497 3H19.4362C20.4308 3 21.3846 3.39509 22.0879 4.09835C22.7911 4.80161 23.1862 5.75544 23.1862 6.75V17.25C23.1862 18.2446 22.7911 19.1984 22.0879 19.9016C21.3846 20.6049 20.4308 21 19.4362 21Z" fill="#010046"/>
<path d="M9.33002 16.425C9.03165 16.425 8.7455 16.3065 8.53452 16.0955C8.32354 15.8845 8.20502 15.5984 8.20502 15.3V8.7C8.20519 8.50551 8.25578 8.31439 8.35184 8.14529C8.44791 7.97619 8.58617 7.83488 8.75314 7.73515C8.92011 7.63543 9.11008 7.58069 9.30451 7.57628C9.49894 7.57187 9.6912 7.61794 9.86252 7.71L16.0163 11.01C16.1029 11.0568 16.1795 11.1202 16.2417 11.1966C16.3039 11.273 16.3504 11.3608 16.3786 11.4552C16.4068 11.5496 16.4162 11.6486 16.4061 11.7466C16.3961 11.8445 16.3668 11.9396 16.32 12.0262C16.2732 12.1129 16.2098 12.1895 16.1334 12.2517C16.0571 12.3139 15.9692 12.3604 15.8748 12.3886C15.7804 12.4168 15.6814 12.4261 15.5835 12.4161C15.4855 12.406 15.3904 12.3768 15.3038 12.33L9.70502 9.33V14.6737L13.08 12.8625C13.1671 12.8102 13.2638 12.7761 13.3644 12.7623C13.465 12.7485 13.5674 12.7552 13.6653 12.7822C13.7632 12.8091 13.8546 12.8556 13.934 12.919C14.0134 12.9823 14.0791 13.0611 14.1272 13.1505C14.1752 13.24 14.2046 13.3383 14.2135 13.4394C14.2224 13.5406 14.2107 13.6425 14.179 13.739C14.1474 13.8355 14.0965 13.9246 14.0294 14.0008C13.9623 14.077 13.8805 14.1388 13.7888 14.1825L9.86252 16.29C9.6989 16.3783 9.51595 16.4247 9.33002 16.425Z" fill="#010046"/>
</svg>
