<svg width="24" height="24" viewBox="0 0 24 24" fill="none" xmlns="http://www.w3.org/2000/svg">
<path d="M22 14.84L20 2.84002C19.9617 2.6034 19.8396 2.38841 19.6561 2.23423C19.4725 2.08005 19.2397 1.99694 19 2.00002H5.00002C4.76033 1.99694 4.52751 2.08005 4.34396 2.23423C4.16041 2.38841 4.03836 2.6034 4.00002 2.84002L2.00002 14.84C1.99649 14.8933 1.99649 14.9467 2.00002 15C2.00002 15.05 2.00002 15.09 2.00002 15.13L3.00002 21.13C3.03176 21.3721 3.15097 21.5942 3.33518 21.7545C3.51939 21.9148 3.75587 22.0021 4.00002 22H20C20.2397 22.0031 20.4725 21.92 20.6561 21.7658C20.8396 21.6116 20.9617 21.3966 21 21.16L22 15.16C22 15.16 22 15.08 22 15.03C22.005 14.9668 22.005 14.9033 22 14.84ZM5.85002 4.00002H18.15L19.82 14H14.82C14.6032 13.988 14.3883 14.0468 14.2079 14.1677C14.0275 14.2886 13.8914 14.4649 13.82 14.67C13.6761 15.0495 13.4201 15.3762 13.0861 15.6067C12.7521 15.8373 12.3559 15.9607 11.95 15.9607C11.5442 15.9607 11.1479 15.8373 10.8139 15.6067C10.4799 15.3762 10.224 15.0495 10.08 14.67C10.0087 14.4649 9.87253 14.2886 9.69212 14.1677C9.51171 14.0468 9.29685 13.988 9.08002 14H4.08002L5.85002 4.00002ZM19.15 20H4.85002L4.18002 16H8.55002C8.90294 16.6015 9.40699 17.1003 10.0122 17.4469C10.6174 17.7935 11.3026 17.9758 12 17.9758C12.6974 17.9758 13.3827 17.7935 13.9879 17.4469C14.5931 17.1003 15.0971 16.6015 15.45 16H19.82L19.15 20Z" fill="#010046"/>
</svg>
