<svg width="24" height="24" viewBox="0 0 24 24" fill="none" xmlns="http://www.w3.org/2000/svg">
<path d="M6 20H18C20.2 20 22 18.2 22 16V9C22 6.8 20.2 5 18 5V4C18 3.4 17.6 3 17 3C16.4 3 16 3.4 16 4V5H8V4C8 3.4 7.6 3 7 3C6.4 3 6 3.4 6 4V5C3.8 5 2 6.8 2 9V16C2 18.2 3.8 20 6 20ZM4 9C4 7.9 4.9 7 6 7C6 7.6 6.4 8 7 8C7.6 8 8 7.6 8 7H16C16 7.6 16.4 8 17 8C17.6 8 18 7.6 18 7C19.1 7 20 7.9 20 9V16C20 17.1 19.1 18 18 18H6C4.9 18 4 17.1 4 16V9Z" fill="#010046"/>
<path d="M8.49997 12.9L9.89997 13.7L9.19997 15.2C8.99997 15.6 9.09997 16.1 9.49997 16.4C9.89997 16.7 10.4 16.7 10.8 16.3L12 15.2L13.2 16.3C13.4 16.5 13.6 16.6 13.9 16.6C14.1 16.6 14.3 16.5 14.5 16.4C14.9 16.1 15 15.6 14.8 15.2L14.1 13.7L15.5 12.9C15.9 12.7 16.1 12.2 16 11.7C15.9 11.3 15.4 11 14.9 11L13.3 11.2L13 9.59999C12.9 9.09999 12.5 8.79999 12 8.79999C11.5 8.79999 11.1 9.09999 11 9.59999L10.7 11.2L9.09997 11C8.59997 11 8.19997 11.2 7.99997 11.7C7.89997 12.2 8.09997 12.6 8.49997 12.9Z" fill="#010046"/>
</svg>
