<svg width="24" height="24" viewBox="0 0 24 24" fill="none" xmlns="http://www.w3.org/2000/svg">
<path d="M22.5 18H14.25C13.8352 18 13.5 18.3353 13.5 18.75C13.5 19.1647 13.8352 19.5 14.25 19.5H21.75C21.75 20.3272 21.0772 21 20.25 21H3.75C2.92275 21 2.25 20.3272 2.25 19.5H9.75C10.1648 19.5 10.5 19.1647 10.5 18.75C10.5 18.3353 10.1648 18 9.75 18H1.5C1.08525 18 0.75 18.3353 0.75 18.75V19.5C0.75 21.1545 2.0955 22.5 3.75 22.5H20.25C21.9045 22.5 23.25 21.1545 23.25 19.5V18.75C23.25 18.3353 22.9147 18 22.5 18ZM18 7.5H20.25C20.664 7.5 21 7.83675 21 8.25V16.5C21 16.9148 21.3353 17.25 21.75 17.25C22.1647 17.25 22.5 16.9148 22.5 16.5V8.25C22.5 7.0095 21.4905 6 20.25 6H18C17.5853 6 17.25 6.336 17.25 6.75C17.25 7.164 17.5853 7.5 18 7.5ZM2.25 17.25C2.66475 17.25 3 16.9148 3 16.5V8.25C3 7.83675 3.336 7.5 3.75 7.5H6C6.41475 7.5 6.75 7.164 6.75 6.75C6.75 6.336 6.41475 6 6 6H3.75C2.5095 6 1.5 7.0095 1.5 8.25V16.5C1.5 16.9148 1.83525 17.25 2.25 17.25ZM8.25 12.75H15.75C16.1648 12.75 16.5 12.414 16.5 12V6.75C16.5 6.336 16.1648 6 15.75 6V3.75C15.75 2.5095 14.7405 1.5 13.5 1.5H10.5C9.2595 1.5 8.25 2.5095 8.25 3.75V6C7.83525 6 7.5 6.336 7.5 6.75V12C7.5 12.414 7.83525 12.75 8.25 12.75ZM9.75 3.75C9.75 3.33675 10.086 3 10.5 3H13.5C13.914 3 14.25 3.33675 14.25 3.75V6H9.75V3.75ZM9 7.5H15V11.25H9V7.5Z" fill="#010046"/>
</svg>
