<svg width="191" height="44" viewBox="0 0 191 44" fill="none" xmlns="http://www.w3.org/2000/svg">
<path d="M50.338 4.4V17H46.774V12.086H41.914V17H38.35V4.4H41.914V9.134H46.774V4.4H50.338ZM61.7393 14.552H56.4113L55.4213 17H51.7853L57.3473 4.4H60.8573L66.4373 17H62.7293L61.7393 14.552ZM60.6953 11.924L59.0753 7.892L57.4553 11.924H60.6953ZM77.0613 10.412C77.8053 10.652 78.3693 11.024 78.7533 11.528C79.1493 12.032 79.3473 12.656 79.3473 13.4C79.3473 14.516 78.9093 15.398 78.0333 16.046C77.1693 16.682 75.9393 17 74.3433 17H67.8813V4.4H74.0013C75.5133 4.4 76.6833 4.688 77.5113 5.264C78.3513 5.828 78.7713 6.632 78.7713 7.676C78.7713 8.288 78.6213 8.828 78.3213 9.296C78.0333 9.764 77.6133 10.136 77.0613 10.412ZM71.3913 9.44H73.6593C74.6673 9.44 75.1713 9.026 75.1713 8.198C75.1713 7.37 74.6673 6.956 73.6593 6.956H71.3913V9.44ZM74.1993 14.444C75.2313 14.444 75.7473 14.006 75.7473 13.13C75.7473 12.278 75.2313 11.852 74.1993 11.852H71.3913V14.444H74.1993ZM81.2758 4.4H84.7858V11.798L89.9878 4.4H93.3358V17H89.8258V9.62L84.6418 17H81.2758V4.4ZM105.257 7.226H99.5514V17H96.0414V4.4H105.275L105.257 7.226ZM113.085 14.552H107.757L106.767 17H103.131L108.693 4.4H112.203L117.783 17H114.075L113.085 14.552ZM112.041 11.924L110.421 7.892L108.801 11.924H112.041ZM128.746 7.226H124.894V17H121.384V7.226H117.514V4.4H128.746V7.226ZM136.405 17.252C135.073 17.252 133.873 16.97 132.805 16.406C131.749 15.842 130.915 15.062 130.303 14.066C129.703 13.07 129.403 11.948 129.403 10.7C129.403 9.452 129.703 8.33 130.303 7.334C130.915 6.338 131.749 5.558 132.805 4.994C133.873 4.43 135.073 4.148 136.405 4.148C137.737 4.148 138.931 4.43 139.987 4.994C141.055 5.558 141.889 6.338 142.489 7.334C143.101 8.33 143.407 9.452 143.407 10.7C143.407 11.948 143.101 13.07 142.489 14.066C141.889 15.062 141.055 15.842 139.987 16.406C138.931 16.97 137.737 17.252 136.405 17.252ZM136.405 14.3C137.041 14.3 137.617 14.15 138.133 13.85C138.649 13.55 139.057 13.13 139.357 12.59C139.657 12.038 139.807 11.408 139.807 10.7C139.807 9.992 139.657 9.368 139.357 8.828C139.057 8.276 138.649 7.85 138.133 7.55C137.617 7.25 137.041 7.1 136.405 7.1C135.769 7.1 135.193 7.25 134.677 7.55C134.161 7.85 133.753 8.276 133.453 8.828C133.153 9.368 133.003 9.992 133.003 10.7C133.003 11.408 133.153 12.038 133.453 12.59C133.753 13.13 134.161 13.55 134.677 13.85C135.193 14.15 135.769 14.3 136.405 14.3ZM151.073 4.4C152.213 4.4 153.203 4.592 154.043 4.976C154.883 5.348 155.531 5.888 155.987 6.596C156.443 7.292 156.671 8.114 156.671 9.062C156.671 10.01 156.443 10.832 155.987 11.528C155.531 12.224 154.883 12.764 154.043 13.148C153.203 13.52 152.213 13.706 151.073 13.706H148.877V17H145.313V4.4H151.073ZM150.857 10.898C151.589 10.898 152.141 10.742 152.513 10.43C152.885 10.106 153.071 9.65 153.071 9.062C153.071 8.474 152.885 8.018 152.513 7.694C152.141 7.37 151.589 7.208 150.857 7.208H148.877V10.898H150.857ZM172.7 14.174V17H162.89V14.768L167.606 10.358C168.062 9.926 168.368 9.56 168.524 9.26C168.68 8.948 168.758 8.636 168.758 8.324C168.758 7.916 168.62 7.598 168.344 7.37C168.068 7.142 167.666 7.028 167.138 7.028C166.67 7.028 166.238 7.136 165.842 7.352C165.458 7.556 165.14 7.856 164.888 8.252L162.242 6.776C162.734 5.96 163.424 5.318 164.312 4.85C165.2 4.382 166.25 4.148 167.462 4.148C168.422 4.148 169.268 4.304 170 4.616C170.744 4.928 171.32 5.378 171.728 5.966C172.148 6.542 172.358 7.214 172.358 7.982C172.358 8.666 172.208 9.314 171.908 9.926C171.62 10.526 171.056 11.21 170.216 11.978L167.84 14.174H172.7ZM175.839 17.162C175.263 17.162 174.777 16.97 174.381 16.586C173.985 16.202 173.787 15.716 173.787 15.128C173.787 14.528 173.979 14.042 174.363 13.67C174.759 13.298 175.251 13.112 175.839 13.112C176.439 13.112 176.931 13.298 177.315 13.67C177.699 14.042 177.891 14.528 177.891 15.128C177.891 15.716 177.693 16.202 177.297 16.586C176.913 16.97 176.427 17.162 175.839 17.162ZM184.326 17.252C183.246 17.252 182.286 16.994 181.446 16.478C180.606 15.962 179.946 15.212 179.466 14.228C178.998 13.232 178.764 12.056 178.764 10.7C178.764 9.344 178.998 8.174 179.466 7.19C179.946 6.194 180.606 5.438 181.446 4.922C182.286 4.406 183.246 4.148 184.326 4.148C185.394 4.148 186.348 4.406 187.188 4.922C188.028 5.438 188.682 6.194 189.15 7.19C189.63 8.174 189.87 9.344 189.87 10.7C189.87 12.056 189.63 13.232 189.15 14.228C188.682 15.212 188.028 15.962 187.188 16.478C186.348 16.994 185.394 17.252 184.326 17.252ZM184.326 14.336C184.926 14.336 185.4 14.048 185.748 13.472C186.108 12.884 186.288 11.96 186.288 10.7C186.288 9.44 186.108 8.522 185.748 7.946C185.4 7.358 184.926 7.064 184.326 7.064C183.714 7.064 183.228 7.358 182.868 7.946C182.52 8.522 182.346 9.44 182.346 10.7C182.346 11.96 182.52 12.884 182.868 13.472C183.228 14.048 183.714 14.336 184.326 14.336ZM38.692 26.4H41.032V39H38.692V26.4ZM49.624 26.4C50.716 26.4 51.664 26.58 52.468 26.94C53.284 27.3 53.908 27.816 54.34 28.488C54.772 29.16 54.988 29.958 54.988 30.882C54.988 31.794 54.772 32.592 54.34 33.276C53.908 33.948 53.284 34.464 52.468 34.824C51.664 35.184 50.716 35.364 49.624 35.364H46.78V39H44.44V26.4H49.624ZM49.516 33.384C50.536 33.384 51.31 33.168 51.838 32.736C52.366 32.304 52.63 31.686 52.63 30.882C52.63 30.078 52.366 29.46 51.838 29.028C51.31 28.596 50.536 28.38 49.516 28.38H46.78V33.384H49.516ZM66.7748 37.038V39H57.3248V26.4H66.5228V28.362H59.6648V31.638H65.7488V33.564H59.6648V37.038H66.7748ZM73.7214 33.726L71.7234 35.778V39H69.3834V26.4H71.7234V32.862L77.9514 26.4H80.5794L75.2874 32.034L80.9034 39H78.1674L73.7214 33.726ZM81.1619 33.06H86.1119V34.932H81.1619V33.06ZM92.432 39.18C91.46 39.18 90.518 39.042 89.606 38.766C88.706 38.49 87.992 38.124 87.464 37.668L88.274 35.85C88.79 36.258 89.42 36.594 90.164 36.858C90.92 37.11 91.676 37.236 92.432 37.236C93.368 37.236 94.064 37.086 94.52 36.786C94.988 36.486 95.222 36.09 95.222 35.598C95.222 35.238 95.09 34.944 94.826 34.716C94.574 34.476 94.25 34.29 93.854 34.158C93.458 34.026 92.918 33.876 92.234 33.708C91.274 33.48 90.494 33.252 89.894 33.024C89.306 32.796 88.796 32.442 88.364 31.962C87.944 31.47 87.734 30.81 87.734 29.982C87.734 29.286 87.92 28.656 88.292 28.092C88.676 27.516 89.246 27.06 90.002 26.724C90.77 26.388 91.706 26.22 92.81 26.22C93.578 26.22 94.334 26.316 95.078 26.508C95.822 26.7 96.464 26.976 97.004 27.336L96.266 29.154C95.714 28.83 95.138 28.584 94.538 28.416C93.938 28.248 93.356 28.164 92.792 28.164C91.868 28.164 91.178 28.32 90.722 28.632C90.278 28.944 90.056 29.358 90.056 29.874C90.056 30.234 90.182 30.528 90.434 30.756C90.698 30.984 91.028 31.164 91.424 31.296C91.82 31.428 92.36 31.578 93.044 31.746C93.98 31.962 94.748 32.19 95.348 32.43C95.948 32.658 96.458 33.012 96.878 33.492C97.31 33.972 97.526 34.62 97.526 35.436C97.526 36.132 97.334 36.762 96.95 37.326C96.578 37.89 96.008 38.34 95.24 38.676C94.472 39.012 93.536 39.18 92.432 39.18ZM108.455 29.388L103.955 39.774C103.535 40.818 103.025 41.55 102.425 41.97C101.825 42.402 101.099 42.618 100.247 42.618C99.7665 42.618 99.2925 42.54 98.8245 42.384C98.3565 42.228 97.9725 42.012 97.6725 41.736L98.5725 40.08C98.7885 40.284 99.0405 40.446 99.3285 40.566C99.6285 40.686 99.9285 40.746 100.229 40.746C100.625 40.746 100.949 40.644 101.201 40.44C101.465 40.236 101.705 39.894 101.921 39.414L102.083 39.036L97.8885 29.388H100.229L103.253 36.498L106.295 29.388H108.455ZM112.708 39.126C111.928 39.126 111.166 39.024 110.422 38.82C109.678 38.616 109.084 38.358 108.64 38.046L109.504 36.336C109.936 36.624 110.452 36.858 111.052 37.038C111.664 37.206 112.264 37.29 112.852 37.29C114.196 37.29 114.868 36.936 114.868 36.228C114.868 35.892 114.694 35.658 114.346 35.526C114.01 35.394 113.464 35.268 112.708 35.148C111.916 35.028 111.268 34.89 110.764 34.734C110.272 34.578 109.84 34.308 109.468 33.924C109.108 33.528 108.928 32.982 108.928 32.286C108.928 31.374 109.306 30.648 110.062 30.108C110.83 29.556 111.862 29.28 113.158 29.28C113.818 29.28 114.478 29.358 115.138 29.514C115.798 29.658 116.338 29.856 116.758 30.108L115.894 31.818C115.078 31.338 114.16 31.098 113.14 31.098C112.48 31.098 111.976 31.2 111.628 31.404C111.292 31.596 111.124 31.854 111.124 32.178C111.124 32.538 111.304 32.796 111.664 32.952C112.036 33.096 112.606 33.234 113.374 33.366C114.142 33.486 114.772 33.624 115.264 33.78C115.756 33.936 116.176 34.2 116.524 34.572C116.884 34.944 117.064 35.472 117.064 36.156C117.064 37.056 116.674 37.776 115.894 38.316C115.114 38.856 114.052 39.126 112.708 39.126ZM124.779 38.478C124.515 38.694 124.191 38.856 123.807 38.964C123.435 39.072 123.039 39.126 122.619 39.126C121.563 39.126 120.747 38.85 120.171 38.298C119.595 37.746 119.307 36.942 119.307 35.886V31.26H117.723V29.46H119.307V27.264H121.557V29.46H124.131V31.26H121.557V35.832C121.557 36.3 121.671 36.66 121.899 36.912C122.127 37.152 122.457 37.272 122.889 37.272C123.393 37.272 123.813 37.14 124.149 36.876L124.779 38.478ZM135.35 34.248C135.35 34.404 135.338 34.626 135.314 34.914H127.772C127.904 35.622 128.246 36.186 128.798 36.606C129.362 37.014 130.058 37.218 130.886 37.218C131.942 37.218 132.812 36.87 133.496 36.174L134.702 37.56C134.27 38.076 133.724 38.466 133.064 38.73C132.404 38.994 131.66 39.126 130.832 39.126C129.776 39.126 128.846 38.916 128.042 38.496C127.238 38.076 126.614 37.494 126.17 36.75C125.738 35.994 125.522 35.142 125.522 34.194C125.522 33.258 125.732 32.418 126.152 31.674C126.584 30.918 127.178 30.33 127.934 29.91C128.69 29.49 129.542 29.28 130.49 29.28C131.426 29.28 132.26 29.49 132.992 29.91C133.736 30.318 134.312 30.9 134.72 31.656C135.14 32.4 135.35 33.264 135.35 34.248ZM130.49 31.08C129.77 31.08 129.158 31.296 128.654 31.728C128.162 32.148 127.862 32.712 127.754 33.42H133.208C133.112 32.724 132.818 32.16 132.326 31.728C131.834 31.296 131.222 31.08 130.49 31.08ZM149.643 29.28C150.855 29.28 151.815 29.634 152.523 30.342C153.231 31.038 153.585 32.088 153.585 33.492V39H151.335V33.78C151.335 32.94 151.149 32.31 150.777 31.89C150.405 31.458 149.871 31.242 149.175 31.242C148.419 31.242 147.813 31.494 147.357 31.998C146.901 32.49 146.673 33.198 146.673 34.122V39H144.423V33.78C144.423 32.94 144.237 32.31 143.865 31.89C143.493 31.458 142.959 31.242 142.263 31.242C141.495 31.242 140.883 31.488 140.427 31.98C139.983 32.472 139.761 33.186 139.761 34.122V39H137.511V29.388H139.653V30.612C140.013 30.18 140.463 29.85 141.003 29.622C141.543 29.394 142.143 29.28 142.803 29.28C143.523 29.28 144.159 29.418 144.711 29.694C145.275 29.958 145.719 30.354 146.043 30.882C146.439 30.378 146.949 29.988 147.573 29.712C148.197 29.424 148.887 29.28 149.643 29.28ZM159.43 39.126C158.65 39.126 157.888 39.024 157.144 38.82C156.4 38.616 155.806 38.358 155.362 38.046L156.226 36.336C156.658 36.624 157.174 36.858 157.774 37.038C158.386 37.206 158.986 37.29 159.574 37.29C160.918 37.29 161.59 36.936 161.59 36.228C161.59 35.892 161.416 35.658 161.068 35.526C160.732 35.394 160.186 35.268 159.43 35.148C158.638 35.028 157.99 34.89 157.486 34.734C156.994 34.578 156.562 34.308 156.19 33.924C155.83 33.528 155.65 32.982 155.65 32.286C155.65 31.374 156.028 30.648 156.784 30.108C157.552 29.556 158.584 29.28 159.88 29.28C160.54 29.28 161.2 29.358 161.86 29.514C162.52 29.658 163.06 29.856 163.48 30.108L162.616 31.818C161.8 31.338 160.882 31.098 159.862 31.098C159.202 31.098 158.698 31.2 158.35 31.404C158.014 31.596 157.846 31.854 157.846 32.178C157.846 32.538 158.026 32.796 158.386 32.952C158.758 33.096 159.328 33.234 160.096 33.366C160.864 33.486 161.494 33.624 161.986 33.78C162.478 33.936 162.898 34.2 163.246 34.572C163.606 34.944 163.786 35.472 163.786 36.156C163.786 37.056 163.396 37.776 162.616 38.316C161.836 38.856 160.774 39.126 159.43 39.126Z" fill="white"/>
<path d="M21.9353 17.6799C21.8822 17.5704 21.7995 17.4781 21.6965 17.4135C21.5935 17.3489 21.4744 17.3147 21.3529 17.3147H14.6106L19.9965 5.92535C20.0433 5.82658 20.0644 5.71756 20.0577 5.60844C20.0511 5.49932 20.017 5.39365 19.9587 5.30128C19.9003 5.20892 19.8195 5.13285 19.7239 5.08017C19.6283 5.02749 19.5209 4.99991 19.4117 5H9.05886C8.93405 4.99998 8.8119 5.03612 8.70713 5.10406C8.60235 5.172 8.51943 5.26885 8.46836 5.38292L0.0566537 24.179C0.0124607 24.2777 -0.00636447 24.386 0.00189529 24.4938C0.010155 24.6017 0.0452367 24.7058 0.103942 24.7966C0.162647 24.8874 0.243108 24.962 0.33799 25.0137C0.432872 25.0653 0.539157 25.0924 0.647155 25.0924H6.96189L3.89725 39.2135C3.86599 39.3568 3.88418 39.5065 3.94883 39.6381C4.01349 39.7696 4.12079 39.8754 4.2532 39.938C4.38561 40.0006 4.5353 40.0164 4.67782 39.9827C4.82033 39.9491 4.94724 39.868 5.03781 39.7528L21.8612 18.3641C21.9364 18.2685 21.9831 18.1536 21.9962 18.0326C22.0093 17.9117 21.9882 17.7894 21.9353 17.6799Z" fill="white"/>
</svg>
