<svg width="781" height="180" viewBox="0 0 781 180" fill="none" xmlns="http://www.w3.org/2000/svg">
<g clip-path="url(#clip0_13_375)">
<path d="M205.832 18V69.5455H191.259V49.4428H171.387V69.5455H156.813V18H171.387V37.3664H191.259V18H205.832ZM252.452 59.5309H230.666L226.618 69.5455H211.75L234.493 18H248.846L271.662 69.5455H256.5L252.452 59.5309ZM248.183 48.78L241.559 32.2855L234.935 48.78H248.183ZM315.104 42.5946C318.146 43.5764 320.453 45.0982 322.023 47.16C323.642 49.2218 324.452 51.7746 324.452 54.8182C324.452 59.3837 322.661 62.9918 319.079 65.6427C315.546 68.2446 310.516 69.5455 303.99 69.5455H277.567V18H302.592C308.774 18 313.558 19.1782 316.944 21.5346C320.379 23.8418 322.096 27.1309 322.096 31.4018C322.096 33.9055 321.483 36.1146 320.256 38.0291C319.079 39.9437 317.361 41.4655 315.104 42.5946ZM291.919 38.6182H301.193C305.315 38.6182 307.376 36.9246 307.376 33.5373C307.376 30.15 305.315 28.4564 301.193 28.4564H291.919V38.6182ZM303.401 59.0891C307.621 59.0891 309.731 57.2973 309.731 53.7137C309.731 50.2282 307.621 48.4855 303.401 48.4855H291.919V59.0891H303.401ZM332.337 18H346.69V48.2646L367.961 18H381.651V69.5455H367.298V39.3546L346.101 69.5455H332.337V18ZM430.396 29.5609H407.066V69.5455H392.714V18H430.47L430.396 29.5609ZM462.405 59.5309H440.619L436.571 69.5455H421.703L444.446 18H458.799L481.615 69.5455H466.453L462.405 59.5309ZM458.136 48.78L451.512 32.2855L444.888 48.78H458.136ZM526.443 29.5609H510.692V69.5455H496.34V29.5609H480.515V18H526.443V29.5609ZM557.761 70.5764C552.314 70.5764 547.407 69.4228 543.04 67.1155C538.722 64.8082 535.312 61.6173 532.81 57.5428C530.356 53.4682 529.13 48.8782 529.13 43.7728C529.13 38.6673 530.356 34.0773 532.81 30.0028C535.312 25.9282 538.722 22.7373 543.04 20.43C547.407 18.1228 552.314 16.9691 557.761 16.9691C563.207 16.9691 568.09 18.1228 572.408 20.43C576.775 22.7373 580.185 25.9282 582.638 30.0028C585.141 34.0773 586.392 38.6673 586.392 43.7728C586.392 48.8782 585.141 53.4682 582.638 57.5428C580.185 61.6173 576.775 64.8082 572.408 67.1155C568.09 69.4228 563.207 70.5764 557.761 70.5764ZM557.761 58.5C560.361 58.5 562.717 57.8864 564.827 56.6591C566.936 55.4318 568.605 53.7137 569.832 51.5046C571.058 49.2464 571.672 46.6691 571.672 43.7728C571.672 40.8764 571.058 38.3237 569.832 36.1146C568.605 33.8564 566.936 32.1137 564.827 30.8864C562.717 29.6591 560.361 29.0455 557.761 29.0455C555.16 29.0455 552.805 29.6591 550.695 30.8864C548.585 32.1137 546.917 33.8564 545.69 36.1146C544.463 38.3237 543.85 40.8764 543.85 43.7728C543.85 46.6691 544.463 49.2464 545.69 51.5046C546.917 53.7137 548.585 55.4318 550.695 56.6591C552.805 57.8864 555.16 58.5 557.761 58.5ZM617.738 18C622.4 18 626.448 18.7855 629.883 20.3564C633.317 21.8782 635.967 24.0873 637.832 26.9837C639.696 29.8309 640.629 33.1937 640.629 37.0718C640.629 40.95 639.696 44.3128 637.832 47.16C635.967 50.0073 633.317 52.2164 629.883 53.7873C626.448 55.3091 622.4 56.07 617.738 56.07H608.759V69.5455H594.186V18H617.738ZM616.855 44.5828C619.848 44.5828 622.105 43.9446 623.626 42.6682C625.148 41.3428 625.908 39.4773 625.908 37.0718C625.908 34.6664 625.148 32.8009 623.626 31.4755C622.105 30.15 619.848 29.4873 616.855 29.4873H608.759V44.5828H616.855ZM706.171 57.9846V69.5455H666.058V60.4146L685.342 42.3737C687.206 40.6064 688.458 39.1091 689.096 37.8818C689.733 36.6055 690.052 35.3291 690.052 34.0528C690.052 32.3837 689.488 31.0828 688.359 30.15C687.231 29.2173 685.587 28.7509 683.428 28.7509C681.515 28.7509 679.748 29.1928 678.129 30.0764C676.559 30.9109 675.258 32.1382 674.228 33.7582L663.408 27.72C665.42 24.3818 668.242 21.7555 671.873 19.8409C675.504 17.9264 679.797 16.9691 684.753 16.9691C688.678 16.9691 692.138 17.6073 695.131 18.8837C698.173 20.16 700.528 22.0009 702.197 24.4064C703.914 26.7628 704.773 29.5118 704.773 32.6537C704.773 35.4518 704.159 38.1028 702.933 40.6064C701.755 43.0609 699.449 45.8591 696.014 49.0009L686.299 57.9846H706.171ZM719.007 70.2082C716.651 70.2082 714.664 69.4228 713.045 67.8518C711.426 66.2809 710.616 64.2928 710.616 61.8873C710.616 59.4328 711.401 57.4446 712.971 55.9228C714.591 54.4009 716.602 53.64 719.007 53.64C721.46 53.64 723.472 54.4009 725.042 55.9228C726.612 57.4446 727.397 59.4328 727.397 61.8873C727.397 64.2928 726.588 66.2809 724.968 67.8518C723.398 69.4228 721.411 70.2082 719.007 70.2082ZM753.71 70.5764C749.294 70.5764 745.368 69.5209 741.934 67.41C738.499 65.2991 735.8 62.2309 733.837 58.2055C731.924 54.1309 730.967 49.32 730.967 43.7728C730.967 38.2255 731.924 33.4391 733.837 29.4137C735.8 25.3391 738.499 22.2464 741.934 20.1355C745.368 18.0246 749.294 16.9691 753.71 16.9691C758.077 16.9691 761.978 18.0246 765.413 20.1355C768.848 22.2464 771.522 25.3391 773.435 29.4137C775.398 33.4391 776.379 38.2255 776.379 43.7728C776.379 49.32 775.398 54.1309 773.435 58.2055C771.522 62.2309 768.848 65.2991 765.413 67.41C761.978 69.5209 758.077 70.5764 753.71 70.5764ZM753.71 58.6473C756.163 58.6473 758.102 57.4691 759.525 55.1128C760.997 52.7073 761.733 48.9273 761.733 43.7728C761.733 38.6182 760.997 34.8628 759.525 32.5064C758.102 30.1009 756.163 28.8982 753.71 28.8982C751.208 28.8982 749.22 30.1009 747.748 32.5064C746.325 34.8628 745.614 38.6182 745.614 43.7728C745.614 48.9273 746.325 52.7073 747.748 55.1128C749.22 57.4691 751.208 58.6473 753.71 58.6473ZM158.212 108H167.78V159.545H158.212V108ZM202.913 108C207.378 108 211.254 108.736 214.542 110.209C217.879 111.682 220.43 113.793 222.197 116.542C223.963 119.291 224.846 122.555 224.846 126.335C224.846 130.066 223.963 133.331 222.197 136.129C220.43 138.878 217.879 140.989 214.542 142.462C211.254 143.935 207.378 144.671 202.913 144.671H191.284V159.545H181.715V108H202.913ZM202.471 136.571C206.642 136.571 209.807 135.687 211.966 133.92C214.125 132.153 215.204 129.625 215.204 126.335C215.204 123.046 214.125 120.518 211.966 118.751C209.807 116.984 206.642 116.1 202.471 116.1H191.284V136.571H202.471ZM273.043 151.519V159.545H234.401V108H272.012V116.026H243.97V129.428H268.847V137.307H243.97V151.519H273.043ZM301.447 137.97L293.277 146.365V159.545H283.709V108H293.277V134.435L318.744 108H329.49L307.851 131.048L330.814 159.545H319.627L301.447 137.97ZM331.871 135.245H352.112V142.904H331.871V135.245ZM377.955 160.282C373.98 160.282 370.129 159.717 366.399 158.588C362.719 157.459 359.8 155.962 357.641 154.096L360.953 146.659C363.063 148.328 365.639 149.703 368.681 150.783C371.772 151.814 374.864 152.329 377.955 152.329C381.782 152.329 384.628 151.715 386.493 150.488C388.406 149.261 389.363 147.641 389.363 145.628C389.363 144.155 388.824 142.953 387.744 142.02C386.714 141.038 385.389 140.277 383.77 139.737C382.15 139.197 379.942 138.584 377.145 137.896C373.22 136.964 370.03 136.031 367.577 135.098C365.173 134.165 363.087 132.717 361.321 130.754C359.603 128.741 358.745 126.041 358.745 122.654C358.745 119.806 359.505 117.229 361.026 114.922C362.597 112.565 364.927 110.7 368.019 109.325C371.159 107.951 374.986 107.264 379.501 107.264C382.641 107.264 385.732 107.656 388.774 108.442C391.817 109.227 394.442 110.356 396.65 111.829L393.632 119.266C391.375 117.941 389.02 116.935 386.566 116.247C384.113 115.56 381.733 115.216 379.427 115.216C375.649 115.216 372.827 115.855 370.963 117.131C369.147 118.407 368.239 120.101 368.239 122.212C368.239 123.685 368.755 124.887 369.785 125.82C370.865 126.753 372.214 127.489 373.833 128.029C375.452 128.569 377.661 129.183 380.457 129.87C384.285 130.754 387.425 131.686 389.878 132.668C392.332 133.601 394.417 135.049 396.135 137.013C397.901 138.976 398.784 141.627 398.784 144.965C398.784 147.813 397.999 150.39 396.429 152.697C394.908 155.005 392.577 156.845 389.437 158.22C386.297 159.595 382.469 160.282 377.955 160.282ZM443.473 120.224L425.073 162.712C423.355 166.983 421.27 169.977 418.816 171.695C416.363 173.463 413.394 174.346 409.911 174.346C407.946 174.346 406.008 174.027 404.094 173.389C402.18 172.751 400.61 171.867 399.383 170.738L403.064 163.964C403.947 164.798 404.977 165.461 406.155 165.952C407.381 166.443 408.608 166.688 409.837 166.688C411.456 166.688 412.781 166.271 413.811 165.436C414.891 164.602 415.872 163.203 416.756 161.239L417.418 159.693L400.267 120.224H409.837L422.202 149.31L434.641 120.224H443.473ZM460.864 160.061C457.674 160.061 454.558 159.644 451.516 158.809C448.474 157.975 446.045 156.919 444.23 155.643L447.762 148.647C449.529 149.825 451.639 150.783 454.092 151.519C456.595 152.206 459.048 152.55 461.452 152.55C466.948 152.55 469.696 151.102 469.696 148.205C469.696 146.831 468.984 145.874 467.561 145.334C466.188 144.794 463.955 144.278 460.864 143.787C457.625 143.296 454.975 142.732 452.915 142.094C450.903 141.455 449.136 140.351 447.615 138.78C446.143 137.16 445.407 134.926 445.407 132.079C445.407 128.348 446.953 125.378 450.044 123.169C453.184 120.911 457.404 119.782 462.704 119.782C465.402 119.782 468.101 120.101 470.8 120.739C473.499 121.328 475.707 122.138 477.424 123.169L473.891 130.165C470.555 128.201 466.801 127.219 462.63 127.219C459.931 127.219 457.87 127.636 456.448 128.471C455.074 129.256 454.387 130.312 454.387 131.637C454.387 133.11 455.123 134.165 456.595 134.804C458.116 135.393 460.447 135.957 463.587 136.497C466.727 136.988 469.303 137.553 471.315 138.191C473.327 138.829 475.044 139.909 476.467 141.431C477.939 142.953 478.675 145.113 478.675 147.911C478.675 151.593 477.081 154.538 473.891 156.747C470.702 158.956 466.359 160.061 460.864 160.061ZM510.222 157.41C509.143 158.294 507.818 158.956 506.247 159.398C504.726 159.84 503.107 160.061 501.39 160.061C497.072 160.061 493.735 158.932 491.38 156.674C489.025 154.415 487.847 151.126 487.847 146.806V127.882H481.37V120.518H487.847V111.535H497.047V120.518H507.572V127.882H497.047V146.585C497.047 148.5 497.513 149.973 498.446 151.004C499.378 151.985 500.727 152.476 502.494 152.476C504.555 152.476 506.272 151.936 507.646 150.856L510.222 157.41ZM553.447 140.105C553.447 140.744 553.398 141.652 553.3 142.83H522.46C523 145.726 524.399 148.034 526.656 149.752C528.962 151.421 531.808 152.255 535.194 152.255C539.512 152.255 543.069 150.832 545.866 147.985L550.797 153.655C549.031 155.765 546.798 157.361 544.099 158.441C541.401 159.521 538.358 160.061 534.973 160.061C530.655 160.061 526.852 159.202 523.564 157.484C520.277 155.765 517.725 153.385 515.91 150.341C514.143 147.248 513.26 143.763 513.26 139.885C513.26 136.055 514.119 132.619 515.836 129.575C517.603 126.483 520.032 124.077 523.123 122.359C526.214 120.641 529.698 119.782 533.574 119.782C537.402 119.782 540.812 120.641 543.805 122.359C546.847 124.028 549.203 126.409 550.871 129.502C552.588 132.545 553.447 136.08 553.447 140.105ZM533.574 127.145C530.63 127.145 528.128 128.029 526.067 129.796C524.055 131.515 522.828 133.822 522.387 136.718H544.688C544.296 133.871 543.094 131.564 541.082 129.796C539.07 128.029 536.568 127.145 533.574 127.145ZM611.891 119.782C616.847 119.782 620.772 121.23 623.667 124.126C626.562 126.974 628.01 131.269 628.01 137.013V159.545H618.81V138.191C618.81 134.755 618.049 132.177 616.528 130.459C615.007 128.692 612.823 127.808 609.977 127.808C606.886 127.808 604.408 128.839 602.544 130.901C600.679 132.914 599.747 135.81 599.747 139.59V159.545H590.546V138.191C590.546 134.755 589.786 132.177 588.265 130.459C586.744 128.692 584.56 127.808 581.714 127.808C578.574 127.808 576.071 128.815 574.207 130.827C572.391 132.84 571.483 135.761 571.483 139.59V159.545H562.283V120.224H571.042V125.231C572.514 123.464 574.354 122.114 576.562 121.181C578.77 120.248 581.223 119.782 583.922 119.782C586.866 119.782 589.467 120.346 591.724 121.475C594.03 122.555 595.846 124.175 597.171 126.335C598.79 124.274 600.875 122.678 603.427 121.549C605.978 120.371 608.8 119.782 611.891 119.782ZM651.91 160.061C648.721 160.061 645.605 159.644 642.563 158.809C639.52 157.975 637.092 156.919 635.276 155.643L638.809 148.647C640.575 149.825 642.685 150.783 645.139 151.519C647.641 152.206 650.095 152.55 652.499 152.55C657.995 152.55 660.742 151.102 660.742 148.205C660.742 146.831 660.031 145.874 658.608 145.334C657.234 144.794 655.001 144.278 651.91 143.787C648.672 143.296 646.022 142.732 643.961 142.094C641.949 141.455 640.183 140.351 638.662 138.78C637.19 137.16 636.454 134.926 636.454 132.079C636.454 128.348 637.999 125.378 641.091 123.169C644.231 120.911 648.451 119.782 653.75 119.782C656.449 119.782 659.148 120.101 661.846 120.739C664.545 121.328 666.753 122.138 668.471 123.169L664.938 130.165C661.601 128.201 657.847 127.219 653.677 127.219C650.978 127.219 648.917 127.636 647.494 128.471C646.12 129.256 645.433 130.312 645.433 131.637C645.433 133.11 646.169 134.165 647.641 134.804C649.162 135.393 651.493 135.957 654.633 136.497C657.774 136.988 660.35 137.553 662.362 138.191C664.373 138.829 666.091 139.909 667.514 141.431C668.986 142.953 669.722 145.113 669.722 147.911C669.722 151.593 668.127 154.538 664.938 156.747C661.748 158.956 657.406 160.061 651.91 160.061Z" fill="black" fill-opacity="0.1"/>
<path d="M89.6936 72.3268C89.4764 71.8789 89.1383 71.5013 88.7171 71.237C88.2959 70.9728 87.8089 70.8328 87.3121 70.8328H59.7428L81.7658 24.2401C81.9572 23.836 82.0434 23.39 82.016 22.9436C81.9891 22.4972 81.8496 22.0649 81.6112 21.687C81.3724 21.3092 81.042 20.998 80.6511 20.7825C80.2602 20.567 79.8211 20.4542 79.3745 20.4545H37.0417C36.5314 20.4544 36.0319 20.6023 35.6035 20.8802C35.1751 21.1582 34.836 21.5544 34.6272 22.021L0.231657 98.9141C0.0509519 99.3178 -0.0260244 99.7609 0.00774985 100.202C0.0415239 100.643 0.184973 101.069 0.425019 101.441C0.665064 101.812 0.99407 102.117 1.38204 102.329C1.77002 102.54 2.20462 102.651 2.64622 102.651H28.4672L15.9359 160.419C15.8081 161.005 15.8824 161.617 16.1468 162.156C16.4112 162.694 16.8499 163.127 17.3914 163.383C17.9328 163.639 18.5449 163.703 19.1276 163.566C19.7104 163.428 20.2293 163.096 20.5996 162.625L89.3906 75.1258C89.6981 74.7348 89.889 74.2647 89.9426 73.7697C89.9961 73.2751 89.9099 72.7748 89.6936 72.3268Z" fill="black" fill-opacity="0.1"/>
</g>
<defs>
<clipPath id="clip0_13_375">
<rect width="781" height="180" fill="white"/>
</clipPath>
</defs>
</svg>
