<svg width="24" height="24" viewBox="0 0 24 24" fill="none" xmlns="http://www.w3.org/2000/svg">
<path d="M17.8875 16.5825H6.11249C5.63249 16.5825 5.24249 16.1925 5.24249 15.7125V0.87C5.24249 0.39 5.63249 0 6.11249 0H15.0187C15.2512 0 15.4687 0.09 15.6337 0.255L18.5025 3.12375C18.6637 3.285 18.7575 3.50625 18.7575 3.73875V15.7125C18.7575 16.1925 18.3675 16.5825 17.8875 16.5825ZM6.98249 14.8425H17.0212V4.09875L14.6625 1.74H6.98249V14.8425Z" fill="#010046"/>
<path d="M19.8525 24H4.14753C3.66753 24 3.27753 23.61 3.27753 23.13V15.7125C3.27753 15.2325 3.66753 14.8425 4.14753 14.8425H19.8488C20.3288 14.8425 20.7188 15.2325 20.7188 15.7125V23.13C20.7225 23.61 20.3325 24 19.8525 24ZM5.01753 22.26H18.9825V16.5825H5.01753V22.26Z" fill="#010046"/>
<path d="M11.3963 20.2913H6.90375C6.42375 20.2913 6.03375 19.9013 6.03375 19.4213C6.03375 18.9413 6.42375 18.5513 6.90375 18.5513H11.3963C11.8763 18.5513 12.2663 18.9413 12.2663 19.4213C12.2663 19.9013 11.8763 20.2913 11.3963 20.2913ZM14.61 6.03001H9.39C8.91 6.03001 8.52 5.64001 8.52 5.16001C8.52 4.68001 8.91 4.29001 9.39 4.29001H14.6063C15.0863 4.29001 15.4763 4.68001 15.4763 5.16001C15.4763 5.64001 15.09 6.03001 14.61 6.03001ZM14.61 9.16126H9.39C8.91 9.16126 8.52 8.77126 8.52 8.29126C8.52 7.81126 8.91 7.42126 9.39 7.42126H14.6063C15.0863 7.42126 15.4763 7.81126 15.4763 8.29126C15.4763 8.77126 15.09 9.16126 14.61 9.16126ZM14.61 12.2925H9.39C8.91 12.2925 8.52 11.9025 8.52 11.4225C8.52 10.9425 8.91 10.5525 9.39 10.5525H14.6063C15.0863 10.5525 15.4763 10.9425 15.4763 11.4225C15.4763 11.9025 15.09 12.2925 14.61 12.2925Z" fill="#010046"/>
<path d="M16.9238 20.1713C17.338 20.1713 17.6738 19.8355 17.6738 19.4213C17.6738 19.0071 17.338 18.6713 16.9238 18.6713C16.5096 18.6713 16.1738 19.0071 16.1738 19.4213C16.1738 19.8355 16.5096 20.1713 16.9238 20.1713Z" fill="#010046" stroke="#010046" stroke-miterlimit="10"/>
<path d="M14.4188 20.1713C14.833 20.1713 15.1688 19.8355 15.1688 19.4213C15.1688 19.0071 14.833 18.6713 14.4188 18.6713C14.0045 18.6713 13.6688 19.0071 13.6688 19.4213C13.6688 19.8355 14.0045 20.1713 14.4188 20.1713Z" fill="#010046" stroke="#010046" stroke-miterlimit="10"/>
</svg>
