<svg width="24" height="24" viewBox="0 0 24 24" fill="none" xmlns="http://www.w3.org/2000/svg">
<g clip-path="url(#clip0_2_100)">
<path d="M21.4125 3.75H2.775C1.27031 3.75 0.046875 4.95 0.046875 6.42188V21.2344C0.046875 22.7344 1.29844 24 2.775 24H21.4125C22.8656 24 24.0469 22.7578 24.0469 21.2344V6.42188C24.0469 4.92188 22.8891 3.75 21.4125 3.75ZM22.1719 21.2344C22.1719 21.7266 21.8297 22.125 21.4125 22.125H2.775C2.32969 22.125 1.92188 21.6984 1.92188 21.2344V6.42188C1.92188 5.98125 2.30625 5.625 2.775 5.625H21.4125C21.8578 5.625 22.1719 5.95312 22.1719 6.42188V21.2344Z" fill="#010046"/>
<path d="M19.4484 18.0328L15.8578 15.5906C16.0078 15.1688 16.0969 14.7234 16.1203 14.2594C16.1719 14.2641 16.2234 14.2594 16.2797 14.2547L17.2031 14.1094C17.5875 14.0484 17.85 13.6922 17.789 13.3078L17.6531 12.4359C17.5922 12.0516 17.2359 11.7891 16.8515 11.85L15.9281 11.9953C15.8484 12.0094 15.7734 12.0328 15.7031 12.0703C15.5062 11.6438 15.2531 11.25 14.9437 10.9031C15.0047 10.8609 15.0562 10.8047 15.1031 10.7438L15.6469 9.98438C15.8719 9.67032 15.8015 9.2297 15.4828 9.0047L14.7656 8.49376C14.4515 8.26876 14.0109 8.33907 13.7859 8.65782L13.2422 9.4172C13.1906 9.48751 13.1578 9.56251 13.1344 9.63751C12.7078 9.46876 12.2531 9.36095 11.775 9.32345C11.7844 9.25782 11.7797 9.1922 11.7703 9.12657L11.6109 8.20313C11.5453 7.81876 11.1797 7.56563 10.8 7.63126L9.9328 7.78126C9.54843 7.84688 9.2953 8.21251 9.36093 8.5922L9.5203 9.51563C9.52968 9.57188 9.54843 9.62813 9.57186 9.6797C9.15468 9.85782 8.7703 10.0875 8.42812 10.3688C8.40468 10.3406 8.37655 10.3125 8.34374 10.2891L7.61718 9.70313C7.31249 9.45938 6.87187 9.51095 6.62812 9.81563L6.07968 10.5C5.83593 10.8047 5.88749 11.2453 6.19218 11.4891L6.92343 12.075C6.9703 12.1125 7.02187 12.1406 7.07343 12.1641C6.90937 12.5484 6.79218 12.9563 6.73593 13.3828L5.81718 13.4953C5.4328 13.5422 5.15624 13.8938 5.20312 14.2781L5.31093 15.15C5.3578 15.5344 5.70937 15.8109 6.09374 15.7641L6.98437 15.6563C7.16718 16.1438 7.42499 16.5984 7.74843 16.9969L7.22812 17.6719C6.98905 17.9813 7.04999 18.4219 7.35468 18.6563L8.05312 19.1953C8.36249 19.4344 8.80312 19.3734 9.03749 19.0688L9.57655 18.3703C10.0453 18.5672 10.5469 18.6938 11.0766 18.7266L11.1984 19.5938C11.25 19.9781 11.6062 20.2453 11.9906 20.1938L12.8625 20.0719C13.2469 20.0203 13.5141 19.6641 13.4625 19.2797L13.3359 18.3516C13.3359 18.3422 13.3312 18.3375 13.3312 18.3281C13.9265 18.0609 14.4562 17.6766 14.8922 17.1984L18.3937 19.5797C18.5531 19.6875 18.7406 19.7438 18.9187 19.7438C19.2187 19.7438 19.514 19.5984 19.6969 19.3313C19.9875 18.9094 19.875 18.3281 19.4484 18.0328ZM11.4094 16.8656C9.84374 16.8656 8.56405 15.5906 8.56405 14.0203C8.56405 12.45 9.83905 11.175 11.4094 11.175C12.975 11.175 14.2547 12.45 14.2547 14.0203C14.2547 15.5906 12.9797 16.8656 11.4094 16.8656Z" fill="#010046"/>
</g>
<defs>
<clipPath id="clip0_2_100">
<rect width="24" height="24" fill="white"/>
</clipPath>
</defs>
</svg>
