<svg width="24" height="24" viewBox="0 0 24 24" fill="none" xmlns="http://www.w3.org/2000/svg">
<path d="M12 23.9756C18.6139 23.9756 23.9756 18.6139 23.9756 12C23.9756 5.38606 18.6139 0.0244141 12 0.0244141C5.38606 0.0244141 0.0244141 5.38606 0.0244141 12C0.0244141 18.6139 5.38606 23.9756 12 23.9756Z" fill="#010046"/>
<path d="M16.3333 19.5177H13.7044V6.51553H12.5333C10.3867 6.51553 9.26221 7.58886 9.26221 9.19108C9.26221 11.0089 10.0378 11.8511 11.6422 12.9244L12.9644 13.8155L9.16443 19.5155H6.33777L9.75777 14.4266C7.7911 13.0222 6.68443 11.6511 6.68443 9.33775C6.68443 6.44664 8.69999 4.47998 12.5155 4.47998H16.3155V19.5133H16.3333V19.5177Z" fill="#C3C3F3"/>
</svg>
